<?xml version="1.0" encoding="utf-8"?>
<!-- Generator: Adobe Illustrator 18.0.0, SVG Export Plug-In . SVG Version: 6.00 Build 0)  -->
<!DOCTYPE svg PUBLIC "-//W3C//DTD SVG 1.1//EN" "http://www.w3.org/Graphics/SVG/1.1/DTD/svg11.dtd">
<svg version="1.1" id="Camada_1" xmlns="http://www.w3.org/2000/svg" xmlns:xlink="http://www.w3.org/1999/xlink" x="0px" y="0px"
	 viewBox="0 0 200 200" enable-background="new 0 0 200 200" xml:space="preserve">
<path fill="#FCFCFC" d="M0,0v200h200V0H0z"/>
<path fill="#333333" d="M5,4v73c0,14.5-1.3,29.7,1.9,44c3.8,16.9,12.2,32.6,24,45.2C41.1,177.2,54.1,185,68,190.2
	c12.8,4.8,26.6,5.8,40,4.9c12.6-0.9,24.6-3.7,36-9.5c9.3-4.7,17.7-11.2,25-18.6c42.7-43.6,32.8-117.5-19-149.2
	c-10.4-6.4-22.8-11-35-12.5C100.1,3.5,85,4,70,4H5z"/>
<path fill="#FCFCFC" d="M89,34.4c-9,1.4-17.5,5-25,10.1C56.9,49.3,50.4,55.8,45.7,63c-24.4,37.6-4.2,89.4,39.3,100.5
	c8.3,2.1,18.5,2.4,27,1c8.1-1.3,15.9-4.4,23-8.4c29.7-17,40.4-56.9,25.2-87.1C152.6,53.9,138,41.8,122,36.5
	C112,33.2,99.4,32.8,89,34.4z"/>
<path fill="#333333" d="M94,51.4c-6.1,0.9-11.6,2.9-17,5.9C39.4,78,47.6,133.7,87,146.5c6.7,2.2,15.1,2.2,22,1.2
	c5.5-0.8,11.1-2.9,16-5.5c37.7-19.8,29.7-77.8-10-89.3C108.3,50.9,100.9,50.4,94,51.4z"/>
<path fill="#FCFCFC" d="M97,75.5c-3.5,0.7-7.1,2.1-10,4.2c-21.1,15.2-6.2,48.5,19,44C136.4,118.3,127.3,69.8,97,75.5z"/>
</svg>
