<?xml version="1.0" encoding="utf-8"?>
<!-- Generator: Adobe Illustrator 18.0.0, SVG Export Plug-In . SVG Version: 6.00 Build 0)  -->
<!DOCTYPE svg PUBLIC "-//W3C//DTD SVG 1.1//EN" "http://www.w3.org/Graphics/SVG/1.1/DTD/svg11.dtd">
<svg version="1.1" id="Camada_1" xmlns="http://www.w3.org/2000/svg" xmlns:xlink="http://www.w3.org/1999/xlink" x="0px" y="0px"
	 viewBox="0 270 869.4 603.4" enable-background="new 0 270 869.4 603.4" xml:space="preserve">
<path fill="#333333" d="M333.7,299.8l10.6,11.9c-11.3-3.2-22.6-4.2-33.2,1.3c12.1,1.2,24.1-4.9,35.4,3.3c4.4,3.2,7.8,8.4,11,12.6
	c-6.1-3.2-11.8-6.4-18.6-8c1.3-1.6,1.7-2.1,2.7-4c-7.8,0-14.9,0.8-22.6,1.3c4.6,7,17.2,10.1,25.2,11.9c-9.7,1.1-18.3-0.4-27.9,2.7
	c4.1,1.6,7.7,0.3,11.9,0.1c6.1-0.1,12.3,1.2,18.6,1.2v2.7c-22.7,0-45-0.7-65,11.9c6.4,4,17-1.9,23.9-3.4c15.7-3.4,28.4-2.8,43.8,0.8
	c-16.8,5-38.2-3.1-47.8,17.2c11.1-6.9,20-11.3,33.2-12.9c8.4-1.1,17,0.7,25.2-1.7c-0.7-1.9-1.1-2.4-2.7-4c3.6-0.8,6.9-1.2,10.6-1.3
	c-4,4.4-5,8.8-5.3,14.6l-2.7-6.6c-8.1,2.4-10.7,10.9-11.9,18.6c-1.5-4.9-0.5-9.7-1.3-14.6c-1.7,1.1-1.6,0.9-2.7,2.7
	c-5.6-1.1-9.7,1.1-14.6,3.7c-10.5,5.6-25.2,13.3-30.5,24.1c6-1.5,10.6-5,15.9-8c-10.3,10.9-24.1,22.9-26.5,38.5
	c7.4-2.4,11.1-10.3,16.2-15.9c10.7-12.1,21.5-24.3,32.9-35.8c-5.7,10.7-11.7,21-13.3,33.2c8-8.9,13.9-24.7,18.6-35.8
	c1.7,6.5,0,13.3,0,19.9c7.2-2.1,11-19.6,13.3-26.5c1.3,4.4,1.3,8.6,1.3,13.3h-4c-0.1,21.6-2.9,43.4-4,65
	c-0.8,18.6,0.9,37.1-1.3,55.7c1.7-2,2-2.7,2.7-5.3c0.8,2.8,1.2,5,1.3,8c4.9-11.5,2.1-26.3,2.7-38.5c0.4-8.9,2.4-17.6,2.5-26.5
	c0.4-16.8-1.3-33.6-1.3-50.4c2,1.3,3.1,1.9,5.3,2.7c1.3-2,1.3-1.6,1.3-4c4,7.2,2.9,20.7,9.3,25.2l-4-25.2c3.6,7,7.2,15.9,7.8,23.9
	c0.5,7.8-1.2,15.9-1.2,23.9h5.3c0.4-9.8,3.2-19.4,3.8-29.2c0.4-6.2-0.9-12.3-1.2-18.6c3.1,5.2,5.2,9.8,5.3,15.9
	c0.1,4.2-2,10.3,0.9,14.1c3.2,4.1,10.5,5.2,15.1,7.2c-11,2.9-21.1,5.3-25.2,17.2c13.3-8.6,22.6-11.9,38.5-11.9
	c6.2,0,13.7,1.6,15.9-5.3c-4.9-2-9.4-4.1-14.6-5.3c6.2-1.1,12.5,1.9,18.6,0.8c4.6-0.8,7.7-4.9,11.9-6.9c4.5-2.1,9.7-1.9,14.6-1.9
	c-8.6,4.9-25.9,18.8-9.3,23.9c-7.2,2.1-13.8-2.3-21.2-2.7c0.3,5.7,0.7,10.6,2.7,15.9c-8.2-4.4-20.4-2.3-29.2,0
	c4-3.3,7.4-5.7,9.3-10.6c-2-1.3-1.6-1.3-4-1.3c1.3-1.6,1.7-2.1,2.7-4c-12.3,1.7-30.4,7.6-33.2,21.2c9-1.9,16.2-9,25.2-11.9
	c-6.5,5.3-13.9,9.9-15.9,18.6c10.2-1.1,17.9-8.2,27.9-10.6c-1.1,6,0.8,10.1,1.2,15.9c0.5,7.4,0.1,15.1,0.1,22.6
	c-18.6,1.5-35.8,9.3-53.1,15.8c-11.1,4.2-22.4,7-33.2,12.7c-7.6,4-21.2,8-23.9,16.6c6.5-1.6,12.2-4.6,18.6-6.6
	c13.4-4.1,28.5-7.3,42.4-8.8c6.2-0.7,12.3,1.5,18.6,1.9c9.9,0.7,20.7-0.1,30.5-1.9c19.6-3.4,38.5-14.9,58.4-15.3v-6.6
	c-7.7,2.9-15.9,4.2-23.9,6.6c-19.1,6-37,11.5-57,13c-8,0.5-15.8-2.5-23.9-2.4c-13,0.1-26.1,4.4-38.5,8c10.2-6.5,21.9-9.2,33.2-13.4
	c16.6-6.2,32.6-13.5,50.4-15.8l1.3,9.3h5.3v-9.3c8,1.9,18.4,3.6,26.5,2.3c8.1-1.3,15.7-4.8,23.9-5.8c5.4-0.7,10.5,0.5,15.9,0.5
	c5.3,0,10.7-2.1,15.9-3.6c-15.8,11.7-31.8,23.7-43.5,39.8c-6,8.2-9.3,17.4-13.3,26.5c-5.8,13.3-11.8,26.1-16.6,39.8
	c-4.1,12.1-13.4,29.7-11.5,42.4c6.1-5.2,9-12.7,12.3-19.9c4.9-10.6,9.8-21.2,14.9-31.8c12.2-25.5,28.9-50,48.4-70.3
	c6.4-6.6,11.5-14.3,17.6-21.2c3.1-3.3,6.8-7.2,11.5-7.4c5-0.1,10.3,3.3,14.6,5.7c3.2,1.7,6.2,3.6,8.9,6.1
	c18.3,17.1,25.6,38.2,30.6,61.9c1.9,8.6,4.2,16.7,6.9,25.2c0.9,2.9,1.3,7.6,4.4,9c4.1,2.1,4.9-3.7,4.8-6.4c-0.3-8-3.2-15.9-3.8-23.9
	c-3.4,8.2,1.3,20.3,1.3,29.2c-4-4.5-4.2-10.2-5.8-15.9c-3.3-11.9-5.3-23.7-7.6-35.8c-3.3-17.1-15.4-36.6-28.9-47.2
	c-3.3-2.5-7-4.5-10.6-6.6c-4-2.3-8.5-4.9-13.3-5.2c-14.6-0.7-23.6,20.3-32.2,29.3c-21.8,22.6-38.1,49.3-51.6,77.5
	c-5.6,11.5-12.6,23.2-15.5,35.8c-1.2-9.9,5.3-22.4,8.8-31.8c9.3-25.7,20-55.6,39.1-75.6c7-7.3,14.6-13.7,22.6-20
	c5.7-4.5,11.1-8,14.6-14.5c-13.8,7-25.2,4.4-39.8,5.4c-7.7,0.5-14.9,4.1-22.6,4.9c-8.4,0.9-16.8-1.1-25.2-1.1
	c1.5-7.6,0.9-14.9,1.5-22.6c0.4-6.1,1.6-11.3-0.1-17.2c4.2,2.1,7.3,5.3,11.9,6.6v-10.6c6.1,6.4,12.7,21.4,22.6,19.9
	c-3.7-11.5-14.1-19.8-22.6-27.9c7.4,4.4,13.5,10.3,18.7,17.2c3.7,4.9,6.2,10.3,11.8,13.3c2-10.2-8.1-19.6-14.6-26.5
	c11.7,3.7,19.6,15.7,31.8,17.2c-1.5-7.8-6.5-13-11.9-18.6c3.3-0.1,6.1-0.4,9.3-1.3c-4.8-8.9-22.6-10.2-31.8-10.6
	c7.4-7.2,21.9-0.3,25.2-10.6c-5.8,0-11.4,0.3-17.2,1.3c6.4-4,18.8-3.4,21.2-10.6l-30.5-1.3c4.8-4.8,11.1-9.3,13.3-15.9
	c-4.6,0.7-7,2.3-10.6,5.3c3.1-6,8-10.5,9.3-17.2c-10.6,3.6-20.7,16.4-25.2,26.5c-0.8-2.8-1.2-5-1.3-8c-2.1,0.7-2,0.5-2.7,2.7
	c-9.7-10.6-18.3-21-29.2-30.5h8c-2.3-4.5-4.5-6.4-9.3-8c2-1.3,1.6-1.3,4-1.3c-1.2-3.3-2-4-5.3-5.3c4.1-0.1,20.2,2.8,19.1,9.2
	c-0.5,2.9-5.4,4.6-7.2,6.8c9.9-2.3,18.6-9.8,5.3-15.9c-11-5-29.1-11.3-41.1-9.3c9-6.8,27.2,4,33.2-5.3c-10.2-0.3-20.3-2.5-30.5-2.7
	c12.2-5.8,24.9-9.4,37.1-14.6c-7.8-5.8-24.9,2-33.2,5.3c5.2-5.3,10.3-10.3,13.3-17.2c-13.9,3.3-23.2,11.9-34.5,19.9
	C358.2,308.2,346.7,300.1,333.7,299.8z"/>
<path fill="#333333" d="M341.7,302.5c6.4,11.1,20.7,20.7,23.9,33.2l-8-2.7c-4.8,4.4-10.9,5.8-17.2,6.6c14.2,7,27.3,0,42.4,0
	c-3.2-4.5-8.1-4-13.3-4c1.2-8,7.4-11.1,12.9-16.6c4.5-4.5,8.8-10.1,12.3-15.3c-9.8,2.8-15.9,7.8-19.9,17.2v-5.3l-10.6,8
	C361.4,313.5,350.9,306.4,341.7,302.5z"/>
<path fill="#333333" d="M372.6,322c-0.1,0.1-0.1,1.5,0.4,0.9C373.1,322.8,373.2,321.3,372.6,322z"/>
<path fill="#333333" d="M370.8,330.3c2.4,0.7,4.1,0.4,6.6,0C375,329.5,373.6,329.8,370.8,330.3z"/>
<path fill="#333333" d="M311.1,334.3c1.6,0.9,2,0.9,4,1.3C313.5,334.7,313.1,334.7,311.1,334.3z"/>
<path fill="#333333" d="M387.7,338.7c-0.5,0.5,0.8,0.5,0.9,0.4C389.1,338.5,387.7,338.7,387.7,338.7 M372.2,340.9
	c2.7,3.6,6.4,4.4,10.6,5.3l-1.3-2.7c8.1,3.3,15.5,8.2,23.9,10.6C395.6,345.8,384.9,340.9,372.2,340.9 M300.5,342.3
	c1.6,0.9,2,0.9,4,1.3C302.9,342.6,302.5,342.6,300.5,342.3z"/>
<path fill="#333333" d="M379.7,342.6c-0.5,0.5,0.8,0.5,0.9,0.4C381.2,342.5,379.7,342.6,379.7,342.6z"/>
<path fill="#333333" d="M393.4,343.6c3.3,2.7,6.5,4.1,10.6,5.3C400.8,345.7,397.9,344.4,393.4,343.6 M370.8,344.9
	c4.4,6.2,9.7,11.5,15.9,15.9c-2-3.6-3.8-6.9-5.3-10.6l8,2.7C384.6,348.2,377.3,346.4,370.8,344.9 M367.8,349.3
	c-0.5,0.5,0.8,0.5,0.9,0.4C369.2,349.1,367.8,349.3,367.8,349.3 M365.5,354.2l-1.3,19.9c2.4-1.3,2.1-1.2,2.7-4
	c5.6,5.6,6.9,13.9,9.3,21.2c1.6-4.4,0.1-8.8-0.5-13.3C374.2,368.9,374.6,359.5,365.5,354.2 M386.8,355.5c2.3,3.7,4.6,6.5,8,9.3
	l-1.3-2.7c3.6,4.5,6.8,11.5,8,17.2c-4.8-3.3-8.6-7.2-11.9-11.9c-1.3,5.6,1.6,11.5,2.3,17.2c0.7,5.3-0.7,10.6-0.9,15.9
	c12.2-2.9,24.9,1.1,37.1,2.7c-5.2-4.5-12.2-4.5-17.2-9.3c7.8,1.1,14.9,4,22.6,5.3c-1.7-6.4-6-10.1-10.3-14.9
	C413,373.8,401.2,359.8,386.8,355.5 M403.6,357.2c-0.5,0.5,0.8,0.5,0.9,0.4C405.1,357.1,403.6,357.2,403.6,357.2 M344.7,359.1
	c-0.1,0.1-0.1,1.5,0.4,0.9C345.2,359.9,345.4,358.4,344.7,359.1 M360.2,360.8v8C361.6,365.7,361.6,363.9,360.2,360.8 M379.2,361.8
	c-0.1,0.1-0.1,1.5,0.4,0.9C379.7,362.5,379.9,361.1,379.2,361.8 M402.7,360.8l1.3,1.3L402.7,360.8 M337.7,363.5l1.3,1.3L337.7,363.5
	 M330.6,365.2c-0.5,0.5,0.8,0.5,0.9,0.4C332.1,365.1,330.6,365.2,330.6,365.2 M412,368.8c0.7,2.1,0.5,2,2.7,2.7
	C414,369.3,414.1,369.4,412,368.8 M381.9,373.7c-0.1,0.1-0.1,1.5,0.4,0.9C382.4,374.5,382.5,373,381.9,373.7 M319.1,374.1l-4,2.7
	C317.6,377.1,318.7,376.7,319.1,374.1 M315.1,382l1.3,1.3L315.1,382 M312.5,384.7l-1.3,2.7C312.9,386,313,386.4,312.5,384.7
	 M453.1,384.7l1.3,1.3L453.1,384.7z"/>
<path fill="#333333" d="M727.7,396.6h11.9c-2.5,1.1-3.8,1.3-6.6,1.3c1.9,3.2,3.6,5.7,4,9.3c2.4,0,2,0,4,1.3l-6.6,5.3
	c-2.4-5-4.8-11.3-9.3-14.6l8,21.2c-2-1.3-1.6-1.3-4-1.3c0.8,3.8,2.3,8,2.3,11.9c0,3.6-1.9,6.9-1.5,10.6c0.5,5.3,4.5,10.6,4.1,15.9
	c-0.4,6.2-4,12.2-4.9,18.6l8-6.6c-0.1,4.1-4.5,15.1,0,15.9c-1.2,4.5-2.4,8.6-2.7,13.3c2-2.5,2.9-4.9,4-8c5.7,8.9,6.1,16.3,5.3,26.5
	c-2.3-4-2.3-6.2-1.3-10.6l-6.6,4L733,528c2.5-3.6,3.7-7.8,5.3-11.9c4.1,8-1.2,15.4-1.3,23.9c2.8-4.9,4.1-10.5,5.3-15.9l2.7,4
	c2.4-5.7,0.9-12.5,1.6-18.6c1.6-16.4,2.4-32.5,2.4-49.1c2.7,9.2,1.3,19.8,1.3,29.2c0,22.8-2.8,47.9,1.3,70.3
	c1.7-4.2,1.2-8.8,1.5-13.3c0.7-9.8,1.2-19.4,1.2-29.2c0-24,2.7-47.6,2.7-71.6h-2.7c-0.7,7.6-1.3,14.9-1.3,22.6
	c-3.2-10.7-2.7-23.3-2.7-34.5c0-6.2-0.9-12.3,0-18.6c-4.6,2.5-6.9,6-9.3,10.6c0.8-6,8.1-24.4,15.9-23.6c3.4,0.3,5.7,3.8,7.6,6.4
	c4.5,6.2,8.4,12.2,9.7,19.9c-5.2-9-9.8-18-15.9-26.5c-1.6,6,4,11,6.8,15.9c5.2,8.9,7.8,16.3,7.8,26.5c-5.8-8.2-9.6-17.8-14.6-26.5
	c-2.1,12.3,12.7,23.5,13.3,35.8c0.3,7.7-1.1,15-1.3,22.6c-0.8,33.2-2.5,66.6-6.6,99.5c-7-2.4-13.8-5.6-21.2-6.4
	c-15.1-1.6-28.9,3.1-43.8,3.7c-24,1.1-47.9,1.3-71.6,4.4c-30,3.8-59.8,11.4-90.2,11.5c4.5,1.9,9.7,1.3,14.6,1.3
	c12.7,0,24.5-2.5,37.1-3.7c21.8-2.1,43.2-6.8,65-9.2c4.9-0.5,9.7,1.1,14.6,0.8c11.8-0.5,24.1-1.6,35.8-2.8
	c15.9-1.6,29.1-4.4,45.1-0.4c5.7,1.5,11.4,2,14.6,7.3c-4.6,0.3-9,1.7-13.3,0c-24,10.3-51.5,8.6-76.9,8c-8.1-0.1-15.8,2-23.9,2.5
	c-6.6,0.4-13.3-0.8-19.9-0.7c-10.9,0.4-20,6.4-30.5,8c-19.2,2.8-39,2.3-58.4,0.8c17-5,36.7-6.6,54.4-7.8c9.2-0.7,17.6,0.3,26.5-2.8
	c-6.8-5.2-21.1-1.6-29.2-0.5c-6.6,0.9-13.3,0.3-19.9,1.1c-9.8,1.3-19.4,5.2-29.2,5.8c-4.4,0.3-8.9-0.8-13.3-1.1
	c7.4-2.1,15.1-0.5,22.6-2.7c-8-2.9-20.4,0.3-29.2,0c-5.7-0.3-12.9-0.4-18.3-2c-4.8-1.3-8.5-3.8-13.5-4.6c5-0.8,9.6,0.8,14.6,0.7
	c6.2-0.1,12.3-1.9,18.6-2c-7.8-6.4-19.9-4-29.2-3.1c-4.5,0.4-8.8-0.8-13.3-0.8c-8.4,0-16.7,1.2-25.2,1.2l1.3-5.3
	c-4.8,3.7-8.6,5.4-14.6,6.6c1.9,3.1,3.1,3.4,6.6,4c-2.8,5.2-14.1,19-9.3,23.9c-2,3.7-3.4,8.4-6.9,10.7c-4.6,3.3-11.5,2.5-17,2.5
	h-34.5c2.7-5.8,1.5-11,1.3-17.2c-0.1-9.3,0-18.6,0-27.9c4.4-0.1,8.1-0.4,11.9-2.7c-4-1.2-7.7-1.3-11.9-1.3l-1.3-13.3
	c-3.3,4.4-2.7,9.3-2.7,14.6c-5.8,0.8-13.9,1.5-17.2,6.6l17.2-2.7l1.3,45.1c-15,0-30.1,2.4-45.1,2c-17.2-0.4-34.4-2.3-51.7-2
	c-7.6,0.1-15,1.6-22.6,1.5c-9.2-0.1-17.6-2.4-26.5-2.8c-5.8-0.3-11.5,0.8-17.2,0.7c-21.2-0.5-42.3-2.3-63.7-2
	c-9.4,0.1-18.6,2.8-27.9,3.7c-12.3,1.2-24.8-0.5-37.1,0.4c-10.2,0.7-20.3,3.6-30.5,3.8c-18.4,0.4-37.3-3.6-55.7-3.8
	c8.5,4.6,17.2,4.5,26.5,5.6c9.3,1.1,18.3,3.7,27.9,3.7c11.1,0,22-3.1,33.2-3.8c47.4-3.3,94.3-4,141.9-2.8
	c10.2,0.3,20.3,2.5,30.5,2.5c15,0,29.8-2.9,45.1-2.5c9.7,0.3,19.5,2.7,29.2,2.5c18.2-0.4,36.3-4,54.4-5c11.7-0.7,24,1.3,35.8,1.2
	c24.7-0.3,49.5-1.9,74.3-1.3c13.7,0.4,27.5,2.3,41.1,2.5c4.1,0,7.8-1.7,11.9-1.6c5.4,0.1,10.5,2.5,15.9,3.1
	c22.4,1.9,45.2,3.1,67.7,4.1c12.6,0.5,26,1.7,38.5,1.3c9.8-0.3,19.4-1.9,29.2-1.2c11.1,0.8,22,4.6,33.2,5.2
	c13,0.7,28.3,1.7,41.1-0.4c11.5-2,22.6-6.6,34.5-7.3c12.1-0.7,23.7,4.9,35.8,5v-4c-11.7-0.5-22.8-5.3-34.5-5.3
	c-14.3,0-27.2,6.2-41.1,7.7c-13.3,1.5-27.7-1.1-41.1-1.1l-1.3-42.4c-4.8,3.1-4,8-4,13.3c0,9.4,1.3,18.6,1.3,27.9
	c-18.4-4.4-37.1-1.2-55.7-1.7c-11.4-0.3-23.2,0.8-34.5,0.3c-8.5-0.5-15.1-3.2-23.9-2.5c2.5-12.2,6.9-26.1,19.9-30.5
	c-12.6-4.8-20.7,14.1-21.2,23.9c-6.2-6-11-13.7-17.2-19.9c10.1-1.3,19-6.8,29.2-7.7c30-3.1,60.2,0.4,90.2-1.7
	c10.5-0.8,20.2-5.2,30.5-6.5c-1.1,14.1-6.6,32.8-2.7,46.4h2.7c1.5-5.2,0.1-9.4,0.1-14.6c0-6,0.9-12.6,1.6-18.6
	c0.4-3.7,0.3-9.4,3.1-12.3c3.1-3.2,8.4-3.4,12.5-3.6c-1.2,15.5-1.3,30.8-1.3,46.4h4c0-8.9,0.9-17.6,1.3-26.5
	c0.3-5.2-0.8-10.9,0.5-15.9c1.1-4.8,4.6-8.6,6.2-13.3h-6.6c0-17.4,3.2-34.4,4-51.7c0.8-19.5-0.8-39.1,2-58.4
	c1.2-8.8-2.1-27.9,6.1-33.2c-1.6-9.4-3.3-21-0.9-30.4c0.9-3.6,3.7-6,4.9-9.4c-14.2,0-28.4-0.3-42.4-1.2
	C736.4,391.1,729.9,390.4,727.7,396.6z"/>
<path fill="#333333" d="M305.8,392.7l-4,5.3C304.2,396.1,305.2,395.4,305.8,392.7 M759.5,395.3c1.6,0.9,2,0.9,4,1.3
	C761.9,395.7,761.5,395.7,759.5,395.3 M739.6,401.9c5.4,1.1,9.3-2,14.6-2.7C748.8,395.6,742.9,396,739.6,401.9z"/>
<path fill="#333333" d="M743.6,398l1.3,1.3L743.6,398z"/>
<path fill="#333333" d="M762.2,400.6c0.7,2.1,0.5,2,2.7,2.7v-2.7H762.2 M771.4,401.9l2.7,6.6c1.5-2.3,2-4,2.7-6.6H771.4 M400,404.6
	c7.2,4.5,16.6,9,25.2,9.3C417.9,409,408.9,405.4,400,404.6 M746.2,404.6l1.3,1.3L746.2,404.6z"/>
<path fill="#333333" d="M719.7,407.2c0,52.8,5.3,105.2,5.3,157.9c4.4-2.9,4-6.9,4-11.9c0-8.8,0.7-17.8-0.3-26.5
	c-3.4-36.9-5-74.4-5-111.4l-2.7,1.3C721,413.2,721,410.3,719.7,407.2 M735.6,407.2l1.3,1.3L735.6,407.2z"/>
<path fill="#333333" d="M743.6,407.2c-4.8,6.5-10.7,12.7-9.3,21.2C737.9,423.2,744.7,413.7,743.6,407.2z"/>
<path fill="#333333" d="M753.3,409.5c-0.1,0.1-0.1,1.5,0.4,0.9C753.8,410.3,753.9,408.8,753.3,409.5z"/>
<path fill="#333333" d="M353.6,411.2l-1.3,67.7c2.7-6.2,1.3-14.5,1.3-21.2C353.6,443.7,359,424.4,353.6,411.2z"/>
<path fill="#333333" d="M754.2,412.6l1.3,5.3C756.1,415.3,755.7,414.7,754.2,412.6z"/>
<path fill="#333333" d="M746.2,421.8c-3.7,8.1-13.8,20.6-8,29.2C743.6,442.3,749.6,432.5,746.2,421.8z"/>
<path fill="#333333" d="M754.2,421.8c2.5,16.8,8.9,30.2,6.6,47.8c4.6-6.1,2.7-15.4,1.3-22.6l2.7,5.3
	C767.2,444.3,759.1,428.3,754.2,421.8z"/>
<path fill="#333333" d="M408.9,424.9c-0.5,0.5,0.8,0.5,0.9,0.4C410.4,424.8,408.9,424.9,408.9,424.9 M454.4,424.5
	c5.7,3.1,12.3,6,18.6,8C468.1,426.7,461.8,424.9,454.4,424.5 M454.4,428.5l1.3,1.3L454.4,428.5 M438.5,432.5l1.3,1.3L438.5,432.5
	 M402.7,439.1l4-1.3C404.3,437.2,404.5,437.4,402.7,439.1 M423.9,441.7l-1.3,6.6C424.3,445.9,424.8,444.7,423.9,441.7 M744.9,443.1
	c-2.1,6.4-4,11.8-4,18.6h-4c0.3,2.5,0.5,4.2,1.3,6.6l5.3-4c-2.3,4.8-2.5,8.1-1.3,13.3l-4-1.3l-1.3,6.6c2.4,0,2,0,4-1.3
	c0.3,5,1.5,8.9,4,13.3c1.9-4.5,1.3-9.7,1.3-14.6C746.2,469.2,749.2,453.1,744.9,443.1z"/>
<path fill="#333333" d="M530,460.3c6.4-2.4,15.7-7.4,22.6-5.2c8,2.5,15.5,12.2,20.6,18.4c12.6,15.7,19.9,36.7,25.7,55.7
	c2.9,9.4,6,19.1,5.4,29.2c9-6.4,0.4-23.6-2.3-31.8c-8.1-25.9-16.1-48.4-36.2-67.7C556.4,450.2,537.2,446.5,530,460.3 M738.3,497.5
	c-1.2,3.2-2.1,6-2.7,9.3C738,503.7,739.3,501.3,738.3,497.5 M152,571.7c4-2.9,6-8,9-11.9c7.8-10.1,15.9-20,23.2-30.5
	c2.7-3.7,4.6-9.3,8.2-12.1c7.8-6.2,23.5,0,32.5,0.1c22.2,0.4,43.9-9.7,66.3-10.6c-27.2,13-40.6,39-50.4,66.3
	c7.6-4.6,12.5-16.4,17.1-23.9c9-14.2,17.8-26.1,32-35.8c-11.1,14.5-23.6,27.2-34,42.4c-5.2,7.6-11,16.1-12.5,25.2
	c7.4-4.2,11.3-14.2,15.8-21.2c8-12.5,15.9-23.1,28-31.8c-3.3-0.9-4.9-0.1-8,1.3c6.4-7.3,18.2-13.9,19.9-23.9
	c-11-0.5-20.7-2.5-31.8-0.8c-13.4,2.1-27.5,8.6-41.1,8.5c-11.7-0.1-25.5-8-36.9-1.9c-5.4,2.9-8.8,10.5-12.3,15.4
	C167.2,540.2,154.9,554.9,152,571.7 M584.4,508.1v4C585.3,509.9,585.3,510.2,584.4,508.1 M587.5,519.6c-0.1,0.1-0.1,1.5,0.4,0.9
	C588,520.4,588.1,518.9,587.5,519.6 M588.4,524v6.6C589.5,528,589.5,526.6,588.4,524z"/>
<path fill="#333333" d="M278,529.3l-1.3,2.7C278.4,530.6,278.5,531,278,529.3z"/>
<path fill="#333333" d="M589.7,533.3v4C590.6,535.1,590.6,535.4,589.7,533.3 M734.3,539.9c-0.3,4.8,1.2,8.8,2.7,13.3l-2.7-1.3
	c0.7,3.6,1.2,7,1.3,10.6c1.6-0.8,1.3-0.7,2.7-2.7c1.6,2.9,2.8,4.5,5.3,6.6c-0.5-3.3-1.5-6.1-2.7-9.3h4l-5.3-17.2
	c-1.6,0.8-1.3,0.7-2.7,2.7C736.3,540.4,736.4,540.6,734.3,539.9 M591,541.2v6.6C592.1,545.2,592.1,543.9,591,541.2z"/>
<path fill="#333333" d="M605.6,547.9v5.3C606.6,550.8,606.6,550.2,605.6,547.9 M738.3,551.8l1.3,5.3
	C740.4,554.5,740,554.1,738.3,551.8z"/>
<path fill="#333333" d="M162.6,569.1c2.4,1.1,4,1.2,6.6,1.3c-10.6,3.6-19.8,1.2-30.5,1.5c-10.5,0.3-21.5,2.1-31.8,3.6
	c-5.3,0.8-11.3,1.1-15.9,4c-8.4,5.4-13.8,16.3-16.8,25.6c-2.1,6.4-3.1,13.3-3.2,19.9c8.6-12.3,9.6-29.3,22.6-39.3
	c7.6-5.7,18.8-5.2,27.9-6.2c11.4-1.5,21.9-0.5,33.2-1.1c9.8-0.4,19.4-3.2,29.2-3.7c6.1-0.3,12.3,1.1,18.6,1.1l-21.2,6.6
	c2.5-2.1,4.6-4.1,6.6-6.6c-12.5,2.4-21.4,14.5-26.8,25.2c-1.2,2.4-7.6,13.7-2,14.7c4.9,0.9,9.3-11.5,11.5-14.7
	c6.8-9.7,21.8-21.2,34.6-18c15.4,3.8,9.4,24,19.9,31.3c0-11.9,0.9-27.5-10.6-34.5c2.1-2,2.8-2.8,4-5.3
	C199.9,571.2,181.5,569.1,162.6,569.1z"/>
<path fill="#333333" d="M206.4,575.7c1.6,0.9,2,0.9,4,1.3C208.7,576.1,208.3,576.1,206.4,575.7 M212.6,577.4
	c-0.5,0.5,0.8,0.5,0.9,0.4C214,577.3,212.6,577.4,212.6,577.4z"/>
<path fill="#333333" d="M396,578.4l1.3,1.3L396,578.4z"/>
<path fill="#333333" d="M767.5,578.4l1.3,2.7c2.1-0.7,2-0.5,2.7-2.7H767.5 M446.5,585c2.7,1.1,3.7,0.8,6.6,0
	C450.6,584.2,449.2,584.5,446.5,585 M455.7,583.7c1.3,5.8,9.6,2.7,14.6,2.7C465.8,584.5,460.5,584.6,455.7,583.7 M502.2,583.7
	c2,0.9,3.1,1.1,5.3,1.3C505.5,584.1,504.4,583.9,502.2,583.7 M465,589c8,5.4,22.2,0.4,31.8,2.7c-4.6,6.9-1.3,22-1.3,30.5l21.2,1.3
	l1.3-25.2h2.7c0.4,7.7,2.5,15,4,22.6c-2.1-3.2-3.3-5.6-4-9.3c-5.4,13.1,9.3,11,17.2,9.8c3.1-0.4,7.3-0.1,9.8-2.1
	c3.3-2.5,3.2-9.3,3.4-13c2.5,4.8,1.5,11,4.4,15.4c4.4,6.6,20.4,5.8,27.5,5.8c-1.1-7-4-16.8-10.9-20.3c-8.2-4.2-17.8-0.5-26.3-2.7
	c-6.9-1.7-12.6-6-19.9-7.6c-6.5-1.5-13.5,0-19.9-1.7c-4.9-1.3-8.5-5.2-13.3-6.6C483.5,585.8,474.4,587.8,465,589 M453.1,589
	l-1.3,5.3h8v-2.7h-5.3l5.3-1.3C457.3,589.2,455.7,589.1,453.1,589 M469,594.3l1.3,29.2h21.2v-29.2h-6.6l1.3,2.7
	C480.4,596.1,474.8,594.6,469,594.3 M450.4,595.6c-1.6,4-3.2,7.7-4,11.9c4.8,1.1,8.8,3.6,13.3,5.3l-1.3-15.9L450.4,595.6
	 M459.7,596.9c1.1,3.8,4.6,13.1,0.5,16.2c-3.4,2.7-8.6-2.4-12.3-2.4c-6-0.1-8.1,8.2-9.4,12.7h27.9v-26.5H459.7 M577.8,606.2
	l5.3,10.6c2.8-4,4.4-8.9,6.6-13.3L577.8,606.2 M592.4,604.9c-1.5,7.6-3.8,14.9-4,22.6c7.6,0.7,14.9,1.3,22.6,1.3
	C608.2,619.4,601,609.8,592.4,604.9 M518.5,607.2c-0.1,0.1-0.1,1.5,0.4,0.9C519,608,519.1,606.5,518.5,607.2z"/>
<path fill="#333333" d="M373.5,642v-2.7h11.9c-3.2-3.6-5.8-4.9-10.6-5.3c2,0.9,3.1,1.1,5.3,1.3c-5.3,2.3-10.2,2.7-15.9,2.7
	c2.4-0.8,4.1-1.1,6.6-1.3c-6-2.4-13.7,0-19.9,1.1c-16.2,2.7-35.3,10.5-51.7,8c-6-0.9-11.1-4.1-17.2-4.8c-7.8-0.8-14.9,1.5-22.6,1.6
	c-4.1,0.1-7.8-1.7-11.9-1.6c-3.4,0.1-6.5,2.1-9.8,2.1c-3.8,0.1-7.4-1.9-11.4-1.9c-9,0.1-17.6,1.9-26.5,2.3
	c-15,0.8-30.1-0.4-45.1-0.1c-13.7,0.3-27.5,2.9-41.1,2.3c-8.4-0.4-16.6-2.3-25.2-2.3c-6.2,0-12.3,1.7-18.6,1.1
	c-11.8-1.2-23.6-5.7-35.8-4.6c-4.2,0.4-7.8,2.9-11.9,4.1c-4.9,1.5-9.8,1.5-14.6,3.4c8,3.1,17.4-1.5,25.2-3.1
	c5.6-1.1,12.9,0.1,18.6,0.5c5.8,0.4,11.4,2,17.2,2.4c18.8,1.3,38.3,0.8,57,0.3c24.1-0.5,48.7,0.5,73-0.1c9.4-0.3,18.6-1.6,27.9-1.9
	c4.1-0.1,7.8,1.7,11.9,1.6c7.6-0.3,11.1-3.6,18.6,0.3l-6.6,4l1.3-4l-1.3-1.3l-11.9,9.3c-0.3-2.5-0.5-4.2-1.3-6.6
	c-2.7,2.1-3.8,3.4-5.3,6.6c-4.6-2.3-6.6-1.7-9.3,2.7c-3.1-2.1-5.7-4.2-9.3-5.3l-2.7,10.6c-2.9-3.2-5.4-6-9.3-8l1.3,8
	c-3.2-2.7-5.3-4.2-9.3-5.3c0.5,8.8,4.2,14.9,13.3,15.9v-8c5.8,0.3,7.3-2.4,8-8c5.6,2.3,8.4,2.1,13.3-1.3c0,2.4,0,2,1.3,4h2.7
	l2.7-5.3l1.3,5.3c6.8-2,13-3.6,18.6-8c2.5,3.8,4.9,3.6,9.3,2.7c-1.6,1.6-2.1,2-4,2.7v2.7c2,1.3,1.6,1.3,4,1.3l-1.3,5.3l4,1.3
	c-2.3,2.4-3.1,3.4-4,6.6c4.4,1.5,10.6,0.3,14.6,2.7l-1.3,1.3c2.7-1.6,3.1-2.3,4-5.3H266c4-2.8,7.7-4.6,9.3-9.3H266
	c3.8-2.4,7-4,9.3-8c-3.2,0.1-6.1,0.5-9.3,1.3c2.9-2.1,4.9-3.6,6.6-6.6l-14.6,1.3c7.2-7.7,17.2-10.9,27.9-8.8c5,0.9,9.4,3.2,14.6,3.4
	c16.1,0.8,31.8-5.2,47.8-4.9c3.7,0,7,1.9,10.7,2.1c23.6,1.7,47.9,4.4,71.6,4c8.5-0.1,16.7-2.3,25.2-2.7c28.5-1.2,56.5-2.4,84.9-5.2
	c12.2-1.2,24.9-2.9,37.1-2.9c9.6,0,18.3,2.3,27.9,0v-2.7c-26-7.7-55.8,0.7-82.2,2.5c-30,2.1-60.1,4.6-90.2,5.4
	C413.3,643.9,393.4,642,373.5,642 M608.3,638.1c12.9,11.3,32.5,5.4,47.8,8.1c10.6,1.7,19.9,0.8,30.5,1.3c8.5,0.4,16.7,1.7,25.2,1.2
	c6.2-0.4,12.3-2.1,18.6-2.4c5.3-0.3,10.6,1.1,15.9,1.2c9.3,0.1,18.4-1.6,27.9-1.3c7.2,0.1,14.1,2,21.2,2.5
	c10.1,0.7,20.7-2.1,30.5,0.1c1.3-2,1.3-1.6,1.3-4c-8.8-2.7-17.5,0.1-26.5,0c-7.2-0.1-14.1-2.3-21.2-2.5c-9.8-0.4-19.4,0.8-29.2,1.2
	c-6.8,0.3-13.3-1.5-19.9-1.2c-7.6,0.3-15,2.4-22.6,2.5c-21,0.5-41.5-2-62.3-3.7c-6.6-0.5-13.3,1.5-19.9,1.1
	C619.6,641.6,614,639.3,608.3,638.1 M388.1,639.4c4.5,1.9,9.7,1.3,14.6,1.3C398.2,638.9,393,639.4,388.1,639.4z"/>
<path fill="#333333" d="M195.7,660.6c1.5,4.2,3.1,6.5,6.6,9.3C200.9,665.7,199.3,663.4,195.7,660.6z"/>
<path fill="#333333" d="M33.9,685.8c3.2,5.7,8.5,5.8,14.6,6.6c8.1,1.2,15.5,2.9,23.9,2.7c27.1-1.2,53.9-5.4,80.9-6.6
	c10.2-0.4,20.2-2.1,30.5-0.7c21.8,2.9,43,5.7,65,4.6c8.9-0.4,17.6-4.4,26.5-4.4c18.6-0.1,37.1,1.6,55.7,1.9
	c18.2,0.3,36.3-1.3,54.4-1.3c14.1,0,28.4,2.9,42.4,3.8c19.5,1.3,38.9-0.3,58.4,1.7c10.6,1.1,21.2,4.6,31.8,5c19,0.7,38.2-3.6,57-4.2
	c17-0.7,33.6,2.8,50.4,3.1c11.4,0.1,23.1-1.7,34.5-2.5c14.5-0.9,29.3-0.1,43.8-0.1c-6.9-2.9-16.4-1.3-23.9-1.3
	c-16.8,0-33.6-0.1-50.4,1.1c-13.8,0.9-28.4-3.7-42.4-3.7c-22.6,0-45.2,4.4-67.7,3.8c-16.3-0.4-32.6-5.7-49.1-6.4
	c-13.7-0.7-27.5,0.8-41.1-0.1c-14.5-0.9-29.3-3.8-43.8-3.8c-23.7,0-47.8,2.3-71.6,1.3c-12.9-0.5-25.6-3.1-38.5-3.4
	c-6.6-0.3-13,5.4-19.9,6.5c-11.8,2-25.2,0.1-37.1-0.4c-11.5-0.5-22.9-3.6-34.5-3.8c-37.5-0.9-74,2.7-111.4,5.2
	C59.5,690.6,46.2,683.2,33.9,685.8 M711.8,688.5c1.6,2.1,3.6,1.7,0,2.7c4.4,1.1,8.8-0.7,13.3-1.1c8-0.8,15.9-1.6,23.9-2.5
	c9-1.1,17.6,0.8,26.5,0.9c-4.4,1.3-8.6,1.3-13.3,1.3c6.9,3.3,15,2.7,22.6,2.7c13.4,0,26.5-0.1,39.8-1.5c7-0.7,17.4-0.3,19.9-7.8
	c-18.2,1.5-36.1,4.2-54.4,4c-13.4-0.1-26.4-2.9-39.8-2.7C737.4,684.9,724.8,688.5,711.8,688.5 M750.2,688.5c2.4,1.1,4,1.2,6.6,1.3
	C754.5,688.7,752.9,688.6,750.2,688.5 M707.4,692.8c-0.5,0.5,0.8,0.5,0.9,0.4C708.8,692.7,707.4,692.8,707.4,692.8 M727.7,700.4
	c2.4,1.1,4,1.2,6.6,1.3c0.7-4.9,7.7-5.3,11.9-6.6C739.7,692.5,733.4,697.2,727.7,700.4 M742.3,701.7c4.1,1.7,7.7,1.1,11.9,0
	C750.4,700.3,746.4,701.5,742.3,701.7 M735.6,701.7c2,1.7,2.7,2,5.3,2.7C738.9,702.7,738.3,702.4,735.6,701.7 M760.4,702.1
	c-0.5,0.5,0.8,0.5,0.9,0.4C761.9,702,760.4,702.1,760.4,702.1 M398.7,705.7c6.4,2.7,13.3,0.4,19.9,0c8.5-0.4,16.7,1.1,25.2,1.3
	c-6.1,2.9-11.9,2.7-18.6,2.7c6.5,2.7,14.5,1.2,21.2,0c-3.2-4.6-9.2-5-14.6-5.3C420.7,704,409.8,705.7,398.7,705.7 M727.7,704.4
	c1.6,0.9,2,0.9,4,1.3C730.1,704.8,729.7,704.8,727.7,704.4 M756.5,704.8c-0.5,0.5,0.8,0.5,0.9,0.4
	C757.9,704.7,756.5,704.8,756.5,704.8 M718.4,711c7.7,3.3,17.1,0.1,25.2,0c-7.7,2.9-17.8,1.9-22.6,9.3h25.2
	c-5.6,1.6-12.2,0.4-15.9,5.3l31.8-4l-2.7,1.3c3.1,0.8,3.7,0,5.3-2.7c-7.2-0.5-14.1-1.3-21.2-1.3c5.6-1.6,11.5-1.6,17.2-2.7l-1.3-2.7
	l6.6-1.3c-3.1-1.3-6-1.3-9.3-1.3c0.9,1.7,0.1,1.3,2.7,1.3c-10.6,3.2-23.3,4.4-34.5,5.3c8.6-3.2,24.8-1.9,30.5-9.3h-9.3
	c2.4-0.8,4.1-1.1,6.6-1.3c-5.2-2-10.6,0.3-15.9,1.3l2.7-1.3C733.4,704.8,724.2,708.5,718.4,711 M303.2,707c-2.1,3.3-4.2,4.1-8,5.3
	c3.8,1.6,6.8,1.2,10.6,0C305,710,304.6,709,303.2,707 M389.4,707c2.8,1.2,4.9,1.3,8,1.3C394.6,707.2,392.5,707,389.4,707
	 M378.8,708.4c2.4,1.1,4,1.2,6.6,1.3C383,708.6,381.5,708.5,378.8,708.4z"/>
<path fill="#333333" d="M731.7,708.4c1.6,0.9,2,0.9,4,1.3C734,708.8,733.6,708.8,731.7,708.4z"/>
<path fill="#333333" d="M350.9,711c5.4,2.1,12.6,0,18.6,0C363.7,708.6,357,710,350.9,711 M271.4,711c-0.3,12.7-17.5,15.4-27.9,15.9
	v2.7l23.9,2.7c-8.8,3.1-17.5,4.9-26.5,6.6c8.5,3.6,22.7-1.3,30.5-5.3v-2.7c-6.1-2.1-12.1-2.7-18.6-2.7c6-1.9,13.3-2.1,18.3-6.2
	C275.2,718.6,275.6,714.1,271.4,711 M408,711c3.1,1.3,6,1.3,9.3,1.3C414.2,711,411.3,711,408,711 M384.1,712.3
	c2.4,1.1,4,1.2,6.6,1.3C388.4,712.6,386.8,712.5,384.1,712.3 M206.4,713.7c2,0.9,3.1,1.1,5.3,1.3
	C209.7,714.1,208.6,713.9,206.4,713.7 M349.6,713.7c5.3,2.3,11.5,1.3,17.2,1.3C361.6,712.7,355.3,713.7,349.6,713.7 M191.8,717.7
	c-3.3,10.5-23.5,12.9-33.2,13.3c5.2,2.1,10.5,0.4,15.9-0.5c8.9-1.6,19.1-1.7,19.9-12.7H191.8 M339,717.7c11.7,5,27.3,2.7,39.8,2.7
	c20.4,0,40.6-2.1,61-1.3c7.6,0.3,15,2,22.6,2.7c-8.4,2.5-16.7,2.1-25.2,2.9c-19.6,1.9-40.1,2.4-59.7,2.4c7.3,3.1,17.4,1.3,25.2,1.3
	c7.4,0,15.1,1.5,22.6,1.1c6.2-0.3,12.3-1.9,18.6-2.3c8.9-0.5,15.4,1.5,23.9-2.8v-2.7c-13.8-5.8-30.4-4-45.1-4
	C394.6,717.7,366.9,717.8,339,717.7 M743.6,726.9c4.8,1.7,9.7-0.3,14.6-1.3C753.4,724.2,748.4,726,743.6,726.9 M722.4,726.9
	c2.4,0.7,4.1,0.4,6.6,0C726.5,726.1,725.2,726.4,722.4,726.9 M446.5,728.3c2,0.9,3.1,1.1,5.3,1.3
	C449.8,728.7,448.7,728.5,446.5,728.3 M723.7,732.2c4.5,1.9,9.7,1.3,14.6,1.3l-13.3,4c1.6,0.9,2,0.9,4,1.3
	c-4.9,1.6-11.1,1.3-14.6,5.3c13-3.1,27.7-1.3,41.1-1.3v2.7h-27.9c2.8,1.2,4.9,1.3,8,1.3c-7.6,2.3-13.9,4.5-21.2,8
	c1.7,1.7,5.2,0.9,8,2.7l-1.3,1.3c12.9-2.9,25.6,0.1,38.5-1.3c-6.2-2.7-14.5-1.3-21.2-1.3c2.8-0.8,5-1.2,8-1.3v-2.7
	c-8.5,0.1-16.8,2-25.2,2.7c6.1-3.7,11.7-3.6,18.6-4.5c8.5-1.2,17.1-3.3,25.2-6.1c-3.4-1.6-6.9-2.1-10.6-2.7
	c4.9-1.5,10.1-0.8,13.3-5.3c-10.1,0.8-19.1,2.7-29.2,1.3c8-1.7,19,1.7,23.9-6.6h-22.6l2.7-1.3C736.7,727.9,729.1,730.5,723.7,732.2
	 M413.3,732.2l5.3-1.3C415.9,729.9,415.1,730,413.3,732.2 M438.5,729.6c2,0.9,3.1,1.1,5.3,1.3C441.8,730,440.7,729.9,438.5,729.6
	 M431.9,730.9c2,0.9,3.1,1.1,5.3,1.3C435.2,731.3,434.1,731.2,431.9,730.9 M415.9,733.6c7.6,2.7,17,1.3,25.2,4v2.7
	c-16.4,3.1-35,2.7-51.7,2.7c8,3.3,19.4,1.3,27.9,1.3c22.2,0,44.2-1.3,66.3-1.3c-4.4,1.5-8.6,2.3-13.3,2.7c6.2,2.5,13.9-0.1,19.9-2.7
	c-4.9-2.1-10.6-1.3-15.9-1.3h-30.5C440.5,730.8,425,731.5,415.9,733.6z"/>
<path fill="#333333" d="M739.6,732.2c6,2.5,13.5,1.3,19.9,1.3C753.5,731.1,746,732.2,739.6,732.2 M729,737.6c2.8,1.2,4.9,1.3,8,1.3
	C734.2,737.7,732.1,737.6,729,737.6z"/>
<path fill="#333333" d="M237.8,740.6c-0.5,0.5,0.8,0.5,0.9,0.4C239.3,740.5,237.8,740.6,237.8,740.6 M280.6,741.5
	c2,0.9,3.1,1.1,5.3,1.3C284,741.9,282.9,741.8,280.6,741.5 M239.5,754.8c7.4,3.3,14.7,5.3,19.9,11.9c-9.6,2-30.1,2.3-35.8,10.6h5.3
	v2.7c-4.5,0.4-8.8,1.6-13.3,2.7c5.7,2,11.7-1.2,17.2-2.7c-1.6-2.7-2.3-3.1-5.3-4c11.5-4.9,24.5-3.3,35.8-9.3
	c-3.8-8-12.7-11.1-21.2-11.9c8.8-8.8,25.2-10.5,37.1-10.6C269.4,739.9,244.8,745,239.5,754.8 M360.2,744.2c8,3.3,19.4,1.3,27.9,1.3
	C380.1,742.2,368.7,744.2,360.2,744.2 M652.1,770.7c-2.5,0.7-4.4,1.5-6.6,2.7v2.7c9.2,2.9,19.1,6.1,22.6,15.9
	c3.6-10.5-10.7-15.4-18.6-17.2l5.3-1.3c-0.7-4.2-1.9-7-5.4-9.8c-2.1-1.7-6.5-3.3-7-6.4c-0.4-2.8,2.4-4.6,4.5-5.8
	c5.3-2.9,12.6-3.8,18.6-4.6c-6.4-2.7-26.9,0.8-25.9,10.6C640,762.9,648.3,767.3,652.1,770.7 M459.7,746.8c2.8,1.2,4.9,1.3,8,1.3
	C464.9,747,462.8,746.8,459.7,746.8 M435.8,749.5c6,3.6,13.1,2.7,19.9,2.7c12.2,0,23.9-0.4,35.8,2.7c-8,3.6-16.6,4.9-25.2,5.3
	c7.8,3.3,18.8-0.3,26.5-2.7c-2.1-6.5-8.5-6.2-14.6-6.6c-10.5-0.7-20.2,0-30.5,0c2.8-0.8,5-1.2,8-1.3
	C449.5,746.8,442.3,749.4,435.8,749.5 M604.3,748.2c6.2,2.9,13.4,4,19.9,6.6c-3.7,5-8.1,8.4-13.3,11.9c5.6,0.5,17.9-7.2,12.5-13.8
	C618.9,747.6,610.5,748.2,604.3,748.2 M718,749.9c-0.5,0.5,0.8,0.5,0.9,0.4C719.4,749.8,718,749.9,718,749.9 M347,757.5
	c3.7,1.5,6.8,0.4,10.6,0.4c9.2,0,17.4-0.3,26.5-1.5c18-2.1,36.2-3.1,54.4-3.1c-8.6-4.6-18.6-2-27.9-1.3
	C389.4,753.6,368.1,754.8,347,757.5 M499.5,756.1c4.2,1.7,8.8,1.3,13.3,1.3C508.5,755.7,504,756.1,499.5,756.1 M514.1,757.5
	c1.6,0.9,2,0.9,4,1.3C516.5,757.8,516.1,757.8,514.1,757.5 M768.8,760.1c4.5,6,16.8,4.4,23.9,5.3l-4,8c4.1-2,8.8-5.4,4-9.3
	c13.9-5.2,29.7-1.2,43.8-5.3c-5.2-1.9-11.7,0-17.2,0C802.1,758.8,785.9,762.2,768.8,760.1 M372.2,758.8c1.6,0.9,2,0.9,4,1.3
	c-0.7,2.1-0.5,2-2.7,2.7c2.4,0.8,2.8,0.7,5.3,0v-2.7C376.4,759.3,374.7,759,372.2,758.8 M519.4,758.8c0,4.4-5.6,3.6-9.3,4.2
	c-9.7,1.6-21.6,1.3-30.5,5c4.9,2.3,10.5,2.5,15.9,2.7c-9.9,5.3-24.8,2.7-35.8,2.7c-26.5,0-53.2,1.3-79.6,1.3
	c10.6,4.4,27.3,1.3,38.5,0.3c14.9-1.5,30.2-0.3,45.1-0.3c-18,5.4-38.3,5.3-57,5.3c5.3,2.3,11.5,1.3,17.2,1.3
	c-12.1,3.6-26,3.1-38.5,4.2c-12.9,1.2-25.6,3.7-38.5,3.7c9,3.7,21.1,0.1,30.5-0.9c20-2.4,40.9-5.3,61-5.7
	c-8.6,2.9-18.7,4.6-27.9,5.3c10.1,4.1,26-2.1,35.8-5.3c-4.2-1.7-8.8-1.3-13.3-1.3c5.8-1.7,11.3-0.5,17.2-1.1
	c15.5-1.3,32.5-3.2,47.8-6.9v-2.7c-3.2-0.8-6.1-1.2-9.3-1.3c9.7-5.2,28.1-0.5,34.5-10.6H519.4 M709.1,769.4c12.6,3.7,26.8,0,39.8,0
	c-10.3,3.2-21.5,2-31.8,5.3c6.6,2.4,16.7,0,23.9,0c-8.4,2.5-19.1,3.3-27.9,4c3.4,5.3,10.1,4,15.9,4h39.8v2.7
	c-15.5,0-29.7-1.7-45.1,0.8c-5.8,0.9-12.3-0.9-15.9,4.5c17.6,0,35.6-0.9,53.1,1.3c-11.5,3.4-25.2,2.1-37.1,2.7
	c-8.9,0.4-17.6,1.9-26.5,2.7c1.5-2.7,4.1-6,3.7-9.2c-0.8-7.8-17.8-9-23.6-10.7c4.6,5.8,14.5,2.9,19.2,8.6c3.3,4-2.8,10.3,2.5,13.1
	c8.2,4.4,16.7,2.1,22.2,11.4c-9,0-24.8-3.2-30.5,5.3c24,0,47.8-2.7,71.6-2.7c-18.3,5.4-38.7,0.8-57,6.6c4.4,3.8,9,3.7,14.6,4.4
	c10.9,1.3,22.3,2.3,33.2,2.3c-5,1.5-9.4,0.7-14.6,0.8c-11.9,0.4-23.9,0.5-35.8,0.5c8.8,6.6,25.2,4,35.8,4
	c-14.5,4.2-30.6-1.6-45.1,2.7c5.3,2.3,11.5,1.3,17.2,1.3h33.2c-11.9,3.6-26,1.1-38.5,2.7c7.8,3.3,15.8,1.9,23.9,1.7
	c4.9-0.1,9.7,0.9,14.6,0.9c-3.6,1.1-6.9,1.3-10.6,1.3c5.8,2.4,14.6,2.3,19.9-1.3c-2.4-0.8-4.1-1.1-6.6-1.3c8-2.5,15.5-5.3,23.9-5.3
	v-2.7l-51.7-1.3c14.7-4.4,33.7-1.5,49.1-2.7v-2.7c-18.6-1.5-37-2.7-55.7-2.7c18.2-5.3,38.9,2.7,57-2.7c-7.6-3.2-18.3-1.3-26.5-1.3
	c8-2.4,20.6,0,25.2-8h-17.2c6.5-2,14.3-0.5,18.6-6.6c-19-3.6-39.1-4.9-58.4-5.3c20.8-6.1,44.2,0.4,65-6.6
	c-5.8-4.5-15.4-2.7-22.6-2.7c6.9-2.1,14.2-2.3,21.2-4v-2.7c-18.4-4.4-39.5-1.3-58.4-1.3c10.6-4,22-2.9,33.2-2.7
	c-0.9-1.7-0.1-1.3-2.7-1.3c5.8-1.7,11.9-0.8,17.2-4c-4.8-2.8-9.3-1.7-14.6-1.3l5.3-2.7c-11.8-5.3-26-1.3-38.5-1.3
	c4-1.5,7.7-2.3,11.9-2.7c-1.6-0.9-2-0.9-4-1.3c4.1-0.9,7.7-0.3,11.9,0c-0.9-1.7-0.1-1.3-2.7-1.3c2.8-0.3,5.2-0.3,8,0v-4
	C730.7,758.8,716,761.4,709.1,769.4 M742.3,760.1c4,1.6,7.7,0.5,11.9,0C750.2,758.5,746.5,759.6,742.3,760.1 M449.1,762.8
	c4.8,2,9.6,0.4,14.6,0C458.9,760.8,454.1,762.4,449.1,762.8 M161.3,764.1c1.9,1.9,2.9,2.7,5.3,4v2.7c-8.5,3.8-8.6,12.5-13.3,19.9
	c7.3-2.9,6-6.8,8.8-13C164.7,771.4,172,767.3,161.3,764.1 M365.5,764.1c2.4,1.1,4,1.2,6.6,1.3C369.8,764.3,368.2,764.2,365.5,764.1
	 M433.2,764.1c3.8,1.6,7.8,1.3,11.9,1.3C441.3,763.8,437.3,764.1,433.2,764.1 M345.6,768.1c5.7,1.7,12.6-0.8,18.6-1.3
	C358.5,764.3,351.5,766.6,345.6,768.1 M412,765.4c2,0.9,3.1,1.1,5.3,1.3C415.3,765.8,414.2,765.7,412,765.4 M542,765.4
	c2.5,8.1-4.8,17.6,5.3,21.5c1.7,0.7,3.6,0.8,5.3,1.1c-2.9-2.9-5.4-4.1-9.3-5.3C546.6,775.1,550.5,770.7,542,765.4 M607,769.4
	l-1.3,5.3c1.7-1.7,2.7-3.2,4-5.3H607z"/>
<path fill="#333333" d="M743.6,773.4c3.4,1.5,6.9,1.3,10.6,1.3C750.8,773.2,747.3,773.4,743.6,773.4z"/>
<path fill="#333333" d="M608.3,774.7c4.2,2,8.6,2.5,13.3,2.7c-0.7,6.6-4.2,12.1-5.3,18.6l6.6,1.3c-1.9-1.2-3.2-1.9-5.3-2.7
	c3.3-7.6,11.1-19-2.7-19.9C612.8,774.6,610.5,774.7,608.3,774.7 M348.3,776c3.4,1.5,6.9,1.3,10.6,1.3C355.5,775.9,352,776,348.3,776
	 M569.8,780l1.3,1.3L569.8,780 M390.7,781.3c3.8,1.6,7.8,1.3,11.9,1.3C398.8,781.1,394.9,781.3,390.7,781.3 M297.5,785.7
	c-0.5,0.5,0.8,0.5,0.9,0.4C298.9,785.6,297.5,785.7,297.5,785.7z"/>
<path fill="#333333" d="M734.3,785.3c1.6,0.9,2,0.9,4,1.3C736.7,785.7,736.3,785.7,734.3,785.3z"/>
<path fill="#333333" d="M270,797.2c8,1.5,18.8-5.3,26.5-8C289,787.2,276.8,793.8,270,797.2 M390.7,790.6c6,2.5,12.3,0.5,18.6,0
	C403.6,788.2,396.8,790.5,390.7,790.6 M382.8,791.9c2.4,1.1,4,1.2,6.6,1.3C387,792.2,385.4,792.1,382.8,791.9 M370.8,793.3
	c1.6,0.9,2,0.9,4,1.3C373.2,793.7,372.8,793.7,370.8,793.3 M518.1,798.6c3.3-1.3,4.8-2.3,6.6-5.3
	C521.5,794.7,520.2,795.9,518.1,798.6 M560.5,793.3c2.7,4,10.1,5.3,11.5,9.7c1.2,3.6-2.8,6.6-2.7,10.1c0.1,5.6,11.9,11.4,16.4,13.4
	c-3.3-6.5-9.3-9.3-15.9-11.9c1.3-2.1,2.8-4.4,3.8-6.6C577.4,798.8,567,796.2,560.5,793.3 M385.4,797.2c6,2.5,12.3,0.7,18.6,0.1
	c11.4-1.1,21.8-1.6,33.2-0.1c-3.4-4-9.7-2.7-14.6-2.7C410.1,794.6,397.9,797,385.4,797.2 M412,798.6c6,2.5,12.3,0.5,18.6,0
	C424.8,796.2,418.1,798.4,412,798.6 M624.2,797.2c4.8,3.1,10.5,4.8,15.9,6.6C635.7,799.6,630.3,797.9,624.2,797.2 M252.8,809.2
	c3.6,1.1,6.8,1.3,10.6,1.3c-5.4,5.3-15.9,5.7-18.6,13.3l10.6-1.3c-2.4-1.1-4-1.2-6.6-1.3c6.5-2.9,13.1-5.7,19.9-8v-2.7
	c-4.5-1.1-8.6-1.3-13.3-1.3c2.9-5.2,8-7,13.3-9.3C262.1,798.6,255.2,803.1,252.8,809.2 M343.9,799c-0.5,0.5,0.8,0.5,0.9,0.4
	C345.4,798.8,343.9,799,343.9,799 M368.2,798.6c3.1,1.3,6,1.3,9.3,1.3C374.4,798.6,371.5,798.6,368.2,798.6 M499.5,822.4
	c5.7-3.7,2.4-8.9,4.8-14.3c2-4.6,8.2-6.2,12.5-8.2C501.2,795.7,503,814,499.5,822.4 M378.8,799.9c1.6,0.9,2,0.9,4,1.3
	C381.2,800.3,380.8,800.3,378.8,799.9 M369.5,803.9l5.3-1.3C372.2,801.5,371.4,801.6,369.5,803.9z"/>
<path fill="#333333" d="M717.1,801.2c12.7,13.7,31.3,5.7,47.8,5.3v-2.7C748.9,803.9,732.8,802.4,717.1,801.2z"/>
<path fill="#333333" d="M361.6,805.2c7.2,5.2,16.3,3.6,21.2,11.9c-7,1.5-14.1,3.3-21.2,3.8c-7.2,0.5-14.3-0.7-21.2,1.5
	c1.6,1.6,1.9,1.7,4,2.7c-5.2,2-10.5,2.9-15.9,4c6,2.4,17.5,1.3,19.9-5.3c10.1,0,20.7-0.1,30.5-3.2c4.2-1.3,7.7-4.6,12.1-5.7
	c8.6-2,19-0.4,27.9-0.4c-7.4,2.8-15.9,4.6-23.9,5.3c8.2,3.3,21-1.7,29.2-4v-2.7c-10.1-2.9-21.4,0.7-31.8-0.1
	c-6.2-0.4-11.1-4.4-17.2-5.2c6.9-2,12.9-0.3,19.9-0.1c7.6,0.1,14.9-1.5,22.6-1.3c6.2,0.1,14.6,1.6,18.6-4c-16.7,0-33.7,1.9-50.4,2.7
	C377.5,805.5,369.2,803.7,361.6,805.2z"/>
<path fill="#333333" d="M709.1,811.8c5.3,2.3,11.5,1.3,17.2,1.3C721.6,809.8,714.8,811.8,709.1,811.8 M727.7,810.5
	c6.2,2.7,14.5,1.3,21.2,1.3C742.7,809.2,734.4,810.5,727.7,810.5z"/>
<path fill="#333333" d="M385.4,821.1c2.8,1.2,4.9,1.3,8,1.3C390.6,821.3,388.5,821.1,385.4,821.1 M373.5,826.4
	c9.4,4,24.3-1.3,34.5-1.3v-2.7C396.3,822.6,385,825.9,373.5,826.4 M365.5,827.8c2.4,1.1,4,1.2,6.6,1.3
	C369.8,828,368.2,827.9,365.5,827.8 M369.5,833.1c6,2.5,12.3,0.5,18.6,0.1c9.2-0.7,18.6-0.1,27.9-0.1c-12.7,6.1-27.7,3.4-41.1,6.6
	c12.9,5.4,28.8,0.1,42.4,2.7c-15.7,4.6-32.9,4-49.1,4c5.3,2.3,11.5,1.3,17.2,1.3c15.3,0,30-2.8,45.1-4l2.7-6.6
	c-10.6,0.1-21.2,2.4-31.8,2.7c6.5-2.1,14.6-1.9,18.6-8L369.5,833.1z"/>
<path fill="#333333" d="M743.6,833.1c4.5,1.9,9.7,1.3,14.6,1.3C753.7,832.5,748.5,833.1,743.6,833.1z"/>
<path fill="#333333" d="M754.2,839.7c1.9,1.2,3.2,1.9,5.3,2.7C757.8,840.2,757,840.1,754.2,839.7 M368.2,841c2,0.9,3.1,1.1,5.3,1.3
	C371.5,841.4,370.4,841.3,368.2,841z"/>
</svg>
