<?xml version="1.0" encoding="utf-8"?>
<!-- Generator: Adobe Illustrator 18.0.0, SVG Export Plug-In . SVG Version: 6.00 Build 0)  -->
<!DOCTYPE svg PUBLIC "-//W3C//DTD SVG 1.1//EN" "http://www.w3.org/Graphics/SVG/1.1/DTD/svg11.dtd">
<svg version="1.1" id="Camada_1" xmlns="http://www.w3.org/2000/svg" xmlns:xlink="http://www.w3.org/1999/xlink" x="0px" y="0px"
	 viewBox="-10.4 39.1 1447.4 452.9" enable-background="new -10.4 39.1 1447.4 452.9" xml:space="preserve">
<path fill="#333333" d="M249,55l8,9c-8.5-2.4-17-3.2-25,1c9.1,0.9,18.2-3.7,26.7,2.5c3.3,2.4,5.9,6.3,8.3,9.5c-4.6-2.4-8.9-4.8-14-6
	c1-1.2,1.3-1.6,2-3c-5.9,0-11.2,0.6-17,1c3.5,5.3,13,7.6,19,9c-7.3,0.8-13.8-0.3-21,2c3.1,1.2,5.8,0.2,9,0.1c4.6-0.1,9.3,0.9,14,0.9
	v2c-17.1,0-33.9-0.5-49,9c4.8,3,12.8-1.4,18-2.6c11.8-2.6,21.4-2.1,33,0.6c-12.7,3.8-28.8-2.3-36,13c8.4-5.2,15.1-8.5,25-9.7
	c6.3-0.8,12.8,0.5,19-1.3c-0.5-1.4-0.8-1.8-2-3c2.7-0.6,5.2-0.9,8-1c-3,3.3-3.8,6.6-4,11l-2-5c-6.1,1.8-8.1,8.2-9,14
	c-1.1-3.7-0.4-7.3-1-11c-1.3,0.8-1.2,0.7-2,2c-4.2-0.8-7.3,0.8-11,2.8c-7.9,4.2-19,10-23,18.2c4.5-1.1,8-3.8,12-6
	c-7.8,8.2-18.2,17.3-20,29c5.6-1.8,8.4-7.8,12.2-12c8.1-9.1,16.2-18.3,24.8-27c-4.3,8.1-8.8,15.8-10,25c6-6.7,10.5-18.6,14-27
	c1.3,4.9,0,10,0,15c5.4-1.6,8.3-14.8,10-20c1,3.3,1,6.5,1,10h-3c-0.1,16.3-2.2,32.7-3,49c-0.6,14,0.7,28-1,42c1.3-1.5,1.5-2,2-4
	c0.6,2.1,0.9,3.8,1,6c3.7-8.7,1.6-19.8,2-29c0.3-6.7,1.8-13.3,1.9-20c0.3-12.7-1-25.3-1-38c1.5,1,2.3,1.4,4,2c1-1.5,1-1.2,1-3
	c3,5.4,2.2,15.6,7,19l-3-19c2.7,5.3,5.4,12,5.9,18c0.4,5.9-0.9,12-0.9,18h4c0.3-7.4,2.4-14.6,2.9-22c0.3-4.7-0.7-9.3-0.9-14
	c2.3,3.9,3.9,7.4,4,12c0.1,3.2-1.5,7.8,0.7,10.6c2.4,3.1,7.9,3.9,11.4,5.4c-8.3,2.2-15.9,4-19,13c10-6.5,17-9,29-9
	c4.7,0,10.3,1.2,12-4c-3.7-1.5-7.1-3.1-11-4c4.7-0.8,9.4,1.4,14,0.6c3.5-0.6,5.8-3.7,9-5.2c3.4-1.6,7.3-1.4,11-1.4
	c-6.5,3.7-19.5,14.2-7,18c-5.4,1.6-10.4-1.7-16-2c0.2,4.3,0.5,8,2,12c-6.2-3.3-15.4-1.7-22,0c3-2.5,5.6-4.3,7-8c-1.5-1-1.2-1-3-1
	c1-1.2,1.3-1.6,2-3c-9.3,1.3-22.9,5.7-25,16c6.8-1.4,12.2-6.8,19-9c-4.9,4-10.5,7.5-12,14c7.7-0.8,13.5-6.2,21-8
	c-0.8,4.5,0.6,7.6,0.9,12c0.4,5.6,0.1,11.4,0.1,17c-14,1.1-27,7-40,11.9c-8.4,3.2-16.9,5.3-25,9.6c-5.7,3-16,6-18,12.5
	c4.9-1.2,9.2-3.5,14-5c10.1-3.1,21.5-5.5,32-6.6c4.7-0.5,9.3,1.1,14,1.4c7.5,0.5,15.6-0.1,23-1.4c14.8-2.6,29-11.2,44-11.5v-5
	c-5.8,2.2-12,3.2-18,5c-14.4,4.5-27.9,8.7-43,9.8c-6,0.4-11.9-1.9-18-1.8c-9.8,0.1-19.7,3.3-29,6c7.7-4.9,16.5-6.9,25-10.1
	c12.5-4.7,24.6-10.2,38-11.9l1,7h4v-7c6,1.4,13.9,2.7,20,1.7c6.1-1,11.8-3.6,18-4.4c4.1-0.5,7.9,0.4,12,0.4c4,0,8.1-1.6,12-2.7
	c-11.9,8.8-24,17.9-32.8,30c-4.5,6.2-7,13.1-10,20c-4.4,10-8.9,19.7-12.5,30c-3.1,9.1-10.1,22.4-8.7,32c4.6-3.9,6.8-9.6,9.3-15
	c3.7-8,7.4-16,11.2-24c9.2-19.2,21.8-37.7,36.5-53c4.8-5,8.7-10.8,13.3-16c2.3-2.5,5.1-5.4,8.7-5.6c3.8-0.1,7.8,2.5,11,4.3
	c2.4,1.3,4.7,2.7,6.7,4.6c13.8,12.9,19.3,28.8,23.1,46.7c1.4,6.5,3.2,12.6,5.2,19c0.7,2.2,1,5.7,3.3,6.8c3.1,1.6,3.7-2.8,3.6-4.8
	c-0.2-6-2.4-12-2.9-18c-2.6,6.2,1,15.3,1,22c-3-3.4-3.2-7.7-4.4-12c-2.5-9-4-17.9-5.7-27c-2.5-12.9-11.6-27.6-21.8-35.6
	c-2.5-1.9-5.3-3.4-8-5c-3-1.7-6.4-3.7-10-3.9c-11-0.5-17.8,15.3-24.3,22.1c-16.4,17-28.7,37.2-38.9,58.4c-4.2,8.7-9.5,17.5-11.7,27
	c-0.9-7.5,4-16.9,6.6-24c7-19.4,15.1-41.9,29.5-57c5.3-5.5,11-10.3,17-15.1c4.3-3.4,8.4-6,11-10.9c-10.4,5.3-19,3.3-30,4.1
	c-5.8,0.4-11.2,3.1-17,3.7c-6.3,0.7-12.7-0.8-19-0.8c1.1-5.7,0.7-11.2,1.1-17c0.3-4.6,1.2-8.5-0.1-13c3.2,1.6,5.5,4,9,5v-8
	c4.6,4.8,9.6,16.1,17,15c-2.8-8.7-10.6-14.9-17-21c5.6,3.3,10.2,7.8,14.1,13c2.8,3.7,4.7,7.8,8.9,10c1.5-7.7-6.1-14.8-11-20
	c8.8,2.8,14.8,11.8,24,13c-1.1-5.9-4.9-9.8-9-14c2.5-0.1,4.6-0.3,7-1c-3.6-6.7-17-7.7-24-8c5.6-5.4,16.5-0.2,19-8
	c-4.4,0-8.6,0.2-13,1c4.8-3,14.2-2.6,16-8l-23-1c3.6-3.6,8.4-7,10-12c-3.5,0.5-5.3,1.7-8,4c2.3-4.5,6-7.9,7-13
	c-8,2.7-15.6,12.4-19,20c-0.6-2.1-0.9-3.8-1-6c-1.6,0.5-1.5,0.4-2,2c-7.3-8-13.8-15.8-22-23h6c-1.7-3.4-3.4-4.8-7-6c1.5-1,1.2-1,3-1
	c-0.9-2.5-1.5-3-4-4c3.1-0.1,15.2,2.1,14.4,6.9c-0.4,2.2-4.1,3.5-5.4,5.1c7.5-1.7,14-7.4,4-12c-8.3-3.8-21.9-8.5-31-7
	c6.8-5.1,20.5,3,25-4c-7.7-0.2-15.3-1.9-23-2c9.2-4.4,18.8-7.1,28-11c-5.9-4.4-18.8,1.5-25,4c3.9-4,7.8-7.8,10-13
	c-10.5,2.5-17.5,9-26,15C267.5,61.3,258.8,55.2,249,55z"/>
<path fill="#333333" d="M255,57c4.8,8.4,15.6,15.6,18,25l-6-2c-3.6,3.3-8.2,4.4-13,5c10.7,5.3,20.6,0,32,0c-2.4-3.4-6.1-3-10-3
	c0.9-6,5.6-8.4,9.7-12.5c3.4-3.4,6.6-7.6,9.3-11.5c-7.4,2.1-12,5.9-15,13v-4l-8,6C269.9,65.3,262,60,255,57z"/>
<path fill="#333333" d="M278.3,71.7c-0.1,0.1-0.1,1.1,0.3,0.7C278.7,72.3,278.8,71.2,278.3,71.7z"/>
<path fill="#333333" d="M277,78c1.8,0.5,3.1,0.3,5,0C280.1,77.4,279.1,77.6,277,78z"/>
<path fill="#333333" d="M232,81c1.2,0.7,1.5,0.7,3,1C233.8,81.3,233.5,81.3,232,81z"/>
<path fill="#333333" d="M289.7,84.3c-0.4,0.4,0.6,0.4,0.7,0.3C290.8,84.2,289.7,84.3,289.7,84.3 M278,86c2,2.7,4.8,3.3,8,4l-1-2
	c6.1,2.5,11.7,6.2,18,8C295.7,89.7,287.6,86,278,86 M224,87c1.2,0.7,1.5,0.7,3,1C225.8,87.3,225.5,87.3,224,87z"/>
<path fill="#333333" d="M283.7,87.3c-0.4,0.4,0.6,0.4,0.7,0.3C284.8,87.2,283.7,87.3,283.7,87.3z"/>
<path fill="#333333" d="M294,88c2.5,2,4.9,3.1,8,4C299.6,89.6,297.4,88.6,294,88 M277,89c3.3,4.7,7.3,8.7,12,12
	c-1.5-2.7-2.9-5.2-4-8l6,2C287.4,91.5,281.9,90.1,277,89 M274.7,92.3c-0.4,0.4,0.6,0.4,0.7,0.3C275.8,92.2,274.7,92.3,274.7,92.3
	 M273,96l-1,15c1.8-1,1.6-0.9,2-3c4.2,4.2,5.2,10.5,7,16c1.2-3.3,0.1-6.6-0.4-10C279.5,107.1,279.8,100,273,96 M289,97
	c1.7,2.8,3.5,4.9,6,7l-1-2c2.7,3.4,5.1,8.7,6,13c-3.6-2.5-6.5-5.4-9-9c-1,4.2,1.2,8.7,1.7,13c0.5,4-0.5,8-0.7,12
	c9.2-2.2,18.8,0.8,28,2c-3.9-3.4-9.2-3.4-13-7c5.9,0.8,11.2,3,17,4c-1.3-4.8-4.5-7.6-7.8-11.2C308.8,110.8,299.9,100.2,289,97
	 M301.7,98.3c-0.4,0.4,0.6,0.4,0.7,0.3C302.8,98.2,301.7,98.3,301.7,98.3 M257.3,99.7c-0.1,0.1-0.1,1.1,0.3,0.7
	C257.7,100.3,257.8,99.2,257.3,99.7 M269,101v6C270,104.7,270,103.3,269,101 M283.3,101.7c-0.1,0.1-0.1,1.1,0.3,0.7
	C283.7,102.3,283.8,101.2,283.3,101.7 M301,101l1,1L301,101 M252,103l1,1L252,103 M246.7,104.3c-0.4,0.4,0.6,0.4,0.7,0.3
	C247.8,104.2,246.7,104.3,246.7,104.3 M308,107c0.5,1.6,0.4,1.5,2,2C309.5,107.4,309.6,107.5,308,107 M285.3,110.7
	c-0.1,0.1-0.1,1.1,0.3,0.7C285.7,111.3,285.8,110.2,285.3,110.7 M238,111l-3,2C236.9,113.3,237.7,113,238,111 M235,117l1,1L235,117
	 M233,119l-1,2C233.3,120,233.4,120.3,233,119 M339,119l1,1L339,119z"/>
<path fill="#333333" d="M546,128h9c-1.9,0.8-2.9,1-5,1c1.4,2.4,2.7,4.3,3,7c1.8,0,1.5,0,3,1l-5,4c-1.8-3.8-3.6-8.5-7-11l6,16
	c-1.5-1-1.2-1-3-1c0.6,2.9,1.7,6,1.7,9c0,2.7-1.4,5.2-1.1,8c0.4,4,3.4,8,3.1,12c-0.3,4.7-3,9.2-3.7,14l6-5c-0.1,3.1-3.4,11.4,0,12
	c-0.9,3.4-1.8,6.5-2,10c1.5-1.9,2.2-3.7,3-6c4.3,6.7,4.6,12.3,4,20c-1.7-3-1.7-4.7-1-8l-5,3l-2,13c1.9-2.7,2.8-5.9,4-9
	c3.1,6-0.9,11.6-1,18c2.1-3.7,3.1-7.9,4-12l2,3c1.8-4.3,0.7-9.4,1.2-14c1.2-12.4,1.8-24.5,1.8-37c2,6.9,1,14.9,1,22
	c0,17.2-2.1,36.1,1,53c1.3-3.2,0.9-6.6,1.1-10c0.5-7.4,0.9-14.6,0.9-22c0-18.1,2-35.9,2-54h-2c-0.5,5.7-1,11.2-1,17
	c-2.4-8.1-2-17.6-2-26c0-4.7-0.7-9.3,0-14c-3.5,1.9-5.2,4.5-7,8c0.6-4.5,6.1-18.4,12-17.8c2.6,0.2,4.3,2.9,5.7,4.8
	c3.4,4.7,6.3,9.2,7.3,15c-3.9-6.8-7.4-13.6-12-20c-1.2,4.5,3,8.3,5.1,12c3.9,6.7,5.9,12.3,5.9,20c-4.4-6.2-7.2-13.4-11-20
	c-1.6,9.3,9.6,17.7,10,27c0.2,5.8-0.8,11.3-1,17c-0.6,25-1.9,50.2-5,75c-5.3-1.8-10.4-4.2-16-4.8c-11.4-1.2-21.8,2.3-33,2.8
	c-18.1,0.8-36.1,1-54,3.3c-22.6,2.9-45.1,8.6-68,8.7c3.4,1.4,7.3,1,11,1c9.6,0,18.5-1.9,28-2.8c16.4-1.6,32.6-5.1,49-6.9
	c3.7-0.4,7.3,0.8,11,0.6c8.9-0.4,18.2-1.2,27-2.1c12-1.2,21.9-3.3,34-0.3c4.3,1.1,8.6,1.5,11,5.5c-3.5,0.2-6.8,1.3-10,0
	c-18.1,7.8-38.8,6.5-58,6c-6.1-0.1-11.9,1.5-18,1.9c-5,0.3-10-0.6-15-0.5c-8.2,0.3-15.1,4.8-23,6c-14.5,2.1-29.4,1.7-44,0.6
	c12.8-3.8,27.7-5,41-5.9c6.9-0.5,13.3,0.2,20-2.1c-5.1-3.9-15.9-1.2-22-0.4c-5,0.7-10,0.2-15,0.8c-7.4,1-14.6,3.9-22,4.4
	c-3.3,0.2-6.7-0.6-10-0.8c5.6-1.6,11.4-0.4,17-2c-6-2.2-15.4,0.2-22,0c-4.3-0.2-9.7-0.3-13.8-1.5c-3.6-1-6.4-2.9-10.2-3.5
	c3.8-0.6,7.2,0.6,11,0.5c4.7-0.1,9.3-1.4,14-1.5c-5.9-4.8-15-3-22-2.3c-3.4,0.3-6.6-0.6-10-0.6c-6.3,0-12.6,0.9-19,0.9l1-4
	c-3.6,2.8-6.5,4.1-11,5c1.4,2.3,2.3,2.6,5,3c-2.1,3.9-10.6,14.3-7,18c-1.5,2.8-2.6,6.3-5.2,8.1c-3.5,2.5-8.7,1.9-12.8,1.9h-26
	c2-4.4,1.1-8.3,1-13c-0.1-7,0-14,0-21c3.3-0.1,6.1-0.3,9-2c-3-0.9-5.8-1-9-1l-1-10c-2.5,3.3-2,7-2,11c-4.4,0.6-10.5,1.1-13,5l13-2
	l1,34c-11.3,0-22.7,1.8-34,1.5c-13-0.3-25.9-1.7-39-1.5c-5.7,0.1-11.3,1.2-17,1.1c-6.9-0.1-13.3-1.8-20-2.1c-4.4-0.2-8.7,0.6-13,0.5
	c-16-0.4-31.9-1.7-48-1.5c-7.1,0.1-14,2.1-21,2.8c-9.3,0.9-18.7-0.4-28,0.3c-7.7,0.5-15.3,2.7-23,2.9c-13.9,0.3-28.1-2.7-42-2.9
	c6.4,3.5,13,3.4,20,4.2c7,0.8,13.8,2.8,21,2.8c8.4,0,16.6-2.3,25-2.9c35.7-2.5,71.1-3,107-2.1c7.7,0.2,15.3,1.9,23,1.9
	c11.3,0,22.5-2.2,34-1.9c7.3,0.2,14.7,2,22,1.9c13.7-0.3,27.4-3,41-3.8c8.8-0.5,18.1,1,27,0.9c18.6-0.2,37.3-1.4,56-1
	c10.3,0.3,20.7,1.7,31,1.9c3.1,0,5.9-1.3,9-1.2c4.1,0.1,7.9,1.9,12,2.3c16.9,1.4,34.1,2.3,51,3.1c9.5,0.4,19.6,1.3,29,1
	c7.4-0.2,14.6-1.4,22-0.9c8.4,0.6,16.6,3.5,25,3.9c9.8,0.5,21.3,1.3,31-0.3c8.7-1.5,17-5,26-5.5c9.1-0.5,17.9,3.7,27,3.8v-3
	c-8.8-0.4-17.2-4-26-4c-10.8,0-20.5,4.7-31,5.8c-10,1.1-20.9-0.8-31-0.8l-1-32c-3.6,2.3-3,6-3,10c0,7.1,1,14,1,21
	c-13.9-3.3-28-0.9-42-1.3c-8.6-0.2-17.5,0.6-26,0.2c-6.4-0.4-11.4-2.4-18-1.9c1.9-9.2,5.2-19.7,15-23c-9.5-3.6-15.6,10.6-16,18
	c-4.7-4.5-8.3-10.3-13-15c7.6-1,14.3-5.1,22-5.8c22.6-2.3,45.4,0.3,68-1.3c7.9-0.6,15.2-3.9,23-4.9c-0.8,10.6-5,24.7-2,35h2
	c1.1-3.9,0.1-7.1,0.1-11c0-4.5,0.7-9.5,1.2-14c0.3-2.8,0.2-7.1,2.3-9.3c2.3-2.4,6.3-2.6,9.4-2.7c-0.9,11.7-1,23.2-1,35h3
	c0-6.7,0.7-13.3,1-20c0.2-3.9-0.6-8.2,0.4-12c0.8-3.6,3.5-6.5,4.7-10h-5c0-13.1,2.4-25.9,3-39c0.6-14.7-0.6-29.5,1.5-44
	c0.9-6.6-1.6-21,4.6-25c-1.2-7.1-2.5-15.8-0.7-22.9c0.7-2.7,2.8-4.5,3.7-7.1c-10.7,0-21.4-0.2-32-0.9
	C552.6,123.8,547.7,123.3,546,128z"/>
<path fill="#333333" d="M228,125l-3,4C226.8,127.6,227.5,127.1,228,125 M570,127c1.2,0.7,1.5,0.7,3,1
	C571.8,127.3,571.5,127.3,570,127 M555,132c4.1,0.8,7-1.5,11-2C561.9,127.2,557.5,127.5,555,132z"/>
<path fill="#333333" d="M558,129l1,1L558,129z"/>
<path fill="#333333" d="M572,131c0.5,1.6,0.4,1.5,2,2v-2H572 M579,132l2,5c1.1-1.7,1.5-3,2-5H579 M299,134c5.4,3.4,12.5,6.8,19,7
	C312.5,137.3,305.7,134.6,299,134 M560,134l1,1L560,134z"/>
<path fill="#333333" d="M540,136c0,39.8,4,79.3,4,119c3.3-2.2,3-5.2,3-9c0-6.6,0.5-13.4-0.2-20c-2.6-27.8-3.8-56.1-3.8-84l-2,1
	C541,140.5,541,138.3,540,136 M552,136l1,1L552,136z"/>
<path fill="#333333" d="M558,136c-3.6,4.9-8.1,9.6-7,16C553.7,148,558.8,140.9,558,136z"/>
<path fill="#333333" d="M565.3,137.7c-0.1,0.1-0.1,1.1,0.3,0.7C565.7,138.3,565.8,137.2,565.3,137.7z"/>
<path fill="#333333" d="M264,139l-1,51c2-4.7,1-10.9,1-16C264,163.5,268.1,148.9,264,139z"/>
<path fill="#333333" d="M566,140l1,4C567.4,142.1,567.1,141.6,566,140z"/>
<path fill="#333333" d="M560,147c-2.8,6.1-10.4,15.5-6,22C558,162.4,562.5,155,560,147z"/>
<path fill="#333333" d="M566,147c1.9,12.7,6.7,22.8,5,36c3.5-4.6,2-11.6,1-17l2,4C575.8,163.9,569.7,151.9,566,147z"/>
<path fill="#333333" d="M305.7,149.3c-0.4,0.4,0.6,0.4,0.7,0.3C306.8,149.2,305.7,149.3,305.7,149.3 M340,149c4.3,2.3,9.3,4.5,14,6
	C350.3,150.7,345.6,149.3,340,149 M340,152l1,1L340,152 M328,155l1,1L328,155 M301,160l3-1C302.2,158.6,302.4,158.7,301,160
	 M317,162l-1,5C317.3,165.1,317.7,164.2,317,162 M559,163c-1.6,4.8-3,8.9-3,14h-3c0.2,1.9,0.4,3.2,1,5l4-3c-1.7,3.6-1.9,6.1-1,10
	l-3-1l-1,5c1.8,0,1.5,0,3-1c0.2,3.8,1.1,6.7,3,10c1.4-3.4,1-7.3,1-11C560,182.7,562.2,170.6,559,163z"/>
<path fill="#333333" d="M397,176c4.8-1.8,11.8-5.6,17-3.9c6,1.9,11.7,9.2,15.5,13.9c9.5,11.8,15,27.7,19.4,42
	c2.2,7.1,4.5,14.4,4.1,22c6.8-4.8,0.3-17.8-1.7-24c-6.1-19.5-12.1-36.5-27.3-51C416.9,168.4,402.4,165.6,397,176 M554,204
	c-0.9,2.4-1.6,4.5-2,7C553.8,208.7,554.8,206.9,554,204 M112,260c3-2.2,4.5-6,6.8-9c5.9-7.6,12-15.1,17.5-23c2-2.8,3.5-7,6.2-9.1
	c5.9-4.7,17.7,0,24.5,0.1c16.7,0.3,33.1-7.3,50-8c-20.5,9.8-30.6,29.4-38,50c5.7-3.5,9.4-12.4,12.9-18c6.8-10.7,13.4-19.7,24.1-27
	c-8.4,10.9-17.8,20.5-25.6,32c-3.9,5.7-8.3,12.1-9.4,19c5.6-3.2,8.5-10.7,11.9-16c6-9.4,12-17.4,21.1-24c-2.5-0.7-3.7-0.1-6,1
	c4.8-5.5,13.7-10.5,15-18c-8.3-0.4-15.6-1.9-24-0.6c-10.1,1.6-20.7,6.5-31,6.4c-8.8-0.1-19.2-6-27.8-1.4c-4.1,2.2-6.6,7.9-9.3,11.6
	C123.5,236.2,114.2,247.3,112,260 M438,212v3C438.7,213.4,438.7,213.6,438,212 M440.3,220.7c-0.1,0.1-0.1,1.1,0.3,0.7
	C440.7,221.3,440.8,220.2,440.3,220.7 M441,224v5C441.8,227,441.8,226,441,224z"/>
<path fill="#333333" d="M207,228l-1,2C207.3,229,207.4,229.3,207,228z"/>
<path fill="#333333" d="M442,231v3C442.7,232.4,442.7,232.6,442,231 M551,236c-0.2,3.6,0.9,6.6,2,10l-2-1c0.5,2.7,0.9,5.3,1,8
	c1.2-0.6,1-0.5,2-2c1.2,2.2,2.1,3.4,4,5c-0.4-2.5-1.1-4.6-2-7h3l-4-13c-1.2,0.6-1,0.5-2,2C552.5,236.4,552.6,236.5,551,236 M443,237
	v5C443.8,240,443.8,239,443,237z"/>
<path fill="#333333" d="M454,242v4C454.7,244.2,454.7,243.8,454,242 M554,245l1,4C555.6,247,555.3,246.7,554,245z"/>
<path fill="#333333" d="M120,258c1.8,0.8,3,0.9,5,1c-8,2.7-14.9,0.9-23,1.1c-7.9,0.2-16.2,1.6-24,2.7c-4,0.6-8.5,0.8-12,3
	c-6.3,4.1-10.4,12.3-12.7,19.3c-1.6,4.8-2.3,10-2.4,15c6.5-9.3,7.2-22.1,17-29.6c5.7-4.3,14.2-3.9,21-4.7c8.6-1.1,16.5-0.4,25-0.8
	c7.4-0.3,14.6-2.4,22-2.8c4.6-0.2,9.3,0.8,14,0.8l-16,5c1.9-1.6,3.5-3.1,5-5c-9.4,1.8-16.1,10.9-20.2,19c-0.9,1.8-5.7,10.3-1.5,11.1
	c3.7,0.7,7-8.7,8.7-11.1c5.1-7.3,16.4-16,26.1-13.6c11.6,2.9,7.1,18.1,15,23.6c0-9,0.7-20.7-8-26c1.6-1.5,2.1-2.1,3-4
	C148.1,259.6,134.3,258,120,258z"/>
<path fill="#333333" d="M153,263c1.2,0.7,1.5,0.7,3,1C154.8,263.3,154.5,263.3,153,263 M157.7,264.3c-0.4,0.4,0.6,0.4,0.7,0.3
	C158.8,264.2,157.7,264.3,157.7,264.3z"/>
<path fill="#333333" d="M296,265l1,1L296,265z"/>
<path fill="#333333" d="M576,265l1,2c1.6-0.5,1.5-0.4,2-2H576 M334,270c2,0.8,2.8,0.6,5,0C337.1,269.4,336.1,269.6,334,270 M341,269
	c1,4.4,7.2,2,11,2C348.6,269.6,344.6,269.7,341,269 M376,269c1.5,0.7,2.3,0.8,4,1C378.5,269.3,377.7,269.2,376,269 M348,273
	c6,4.1,16.7,0.3,24,2c-3.5,5.2-1,16.6-1,23l16,1l1-19h2c0.3,5.8,1.9,11.3,3,17c-1.6-2.4-2.5-4.2-3-7c-4.1,9.9,7,8.3,13,7.4
	c2.3-0.3,5.5-0.1,7.4-1.6c2.5-1.9,2.4-7,2.6-9.8c1.9,3.6,1.1,8.3,3.3,11.6c3.3,5,15.4,4.4,20.7,4.4c-0.8-5.3-3-12.7-8.2-15.3
	c-6.2-3.2-13.4-0.4-19.8-2c-5.2-1.3-9.5-4.5-15-5.7c-4.9-1.1-10.2,0-15-1.3c-3.7-1-6.4-3.9-10-5C361.9,270.6,355.1,272.1,348,273
	 M339,273l-1,4h6v-2h-4l4-1C342.2,273.2,341,273.1,339,273 M351,277l1,22h16v-22h-5l1,2C359.6,278.4,355.4,277.2,351,277 M337,278
	c-1.2,3-2.4,5.8-3,9c3.6,0.8,6.6,2.7,10,4l-1-12L337,278 M344,279c0.8,2.9,3.5,9.9,0.4,12.2c-2.6,2-6.5-1.8-9.3-1.8
	c-4.5-0.1-6.1,6.2-7.1,9.6h21v-20H344 M433,286l4,8c2.1-3,3.3-6.7,5-10L433,286 M444,285c-1.1,5.7-2.9,11.2-3,17
	c5.7,0.5,11.2,1,17,1C455.9,295.9,450.5,288.7,444,285 M388.3,286.7c-0.1,0.1-0.1,1.1,0.3,0.7C388.7,287.3,388.8,286.2,388.3,286.7z
	"/>
<path fill="#333333" d="M279,313v-2h9c-2.4-2.7-4.4-3.7-8-4c1.5,0.7,2.3,0.8,4,1c-4,1.7-7.7,2-12,2c1.8-0.6,3.1-0.8,5-1
	c-4.5-1.8-10.3,0-15,0.8c-12.2,2-26.6,7.9-39,6c-4.5-0.7-8.4-3.1-13-3.6c-5.9-0.6-11.2,1.1-17,1.2c-3.1,0.1-5.9-1.3-9-1.2
	c-2.6,0.1-4.9,1.6-7.4,1.6c-2.9,0.1-5.6-1.4-8.6-1.4c-6.8,0.1-13.3,1.4-20,1.7c-11.3,0.6-22.7-0.3-34-0.1c-10.3,0.2-20.7,2.2-31,1.7
	c-6.3-0.3-12.5-1.7-19-1.7c-4.7,0-9.3,1.3-14,0.8c-8.9-0.9-17.8-4.3-27-3.5c-3.2,0.3-5.9,2.2-9,3.1c-3.7,1.1-7.4,1.1-11,2.6
	c6,2.3,13.1-1.1,19-2.3c4.2-0.8,9.7,0.1,14,0.4c4.4,0.3,8.6,1.5,13,1.8c14.2,1,28.9,0.6,43,0.2c18.2-0.4,36.7,0.4,55-0.1
	c7.1-0.2,14-1.2,21-1.4c3.1-0.1,5.9,1.3,9,1.2c5.7-0.2,8.4-2.7,14,0.2l-5,3l1-3l-1-1l-9,7c-0.2-1.9-0.4-3.2-1-5c-2,1.6-2.9,2.6-4,5
	c-3.5-1.7-5-1.3-7,2c-2.3-1.6-4.3-3.2-7-4l-2,8c-2.2-2.4-4.1-4.5-7-6l1,6c-2.4-2-4-3.2-7-4c0.4,6.6,3.2,11.2,10,12v-6
	c4.4,0.2,5.5-1.8,6-6c4.2,1.7,6.3,1.6,10-1c0,1.8,0,1.5,1,3h2l2-4l1,4c5.1-1.5,9.8-2.7,14-6c1.9,2.9,3.7,2.7,7,2
	c-1.2,1.2-1.6,1.5-3,2v2c1.5,1,1.2,1,3,1l-1,4l3,1c-1.7,1.8-2.3,2.6-3,5c3.3,1.1,8,0.2,11,2l-1,1c2-1.2,2.3-1.7,3-4h-10
	c3-2.1,5.8-3.5,7-7h-7c2.9-1.8,5.3-3,7-6c-2.4,0.1-4.6,0.4-7,1c2.2-1.6,3.7-2.7,5-5l-11,1c5.4-5.8,13-8.2,21-6.6
	c3.8,0.7,7.1,2.4,11,2.6c12.1,0.6,24-3.9,36-3.7c2.8,0,5.3,1.4,8.1,1.6c17.8,1.3,36.1,3.3,54,3c6.4-0.1,12.6-1.7,19-2
	c21.5-0.9,42.6-1.8,64-3.9c9.2-0.9,18.8-2.2,28-2.2c7.2,0,13.8,1.7,21,0v-2c-19.6-5.8-42.1,0.5-62,1.9c-22.6,1.6-45.3,3.5-68,4.1
	C309,314.4,294,313,279,313 M456,310c9.7,8.5,24.5,4.1,36,6.1c8,1.3,15,0.6,23,1c6.4,0.3,12.6,1.3,19,0.9c4.7-0.3,9.3-1.6,14-1.8
	c4-0.2,8,0.8,12,0.9c7,0.1,13.9-1.2,21-1c5.4,0.1,10.6,1.5,16,1.9c7.6,0.5,15.6-1.6,23,0.1c1-1.5,1-1.2,1-3c-6.6-2-13.2,0.1-20,0
	c-5.4-0.1-10.6-1.7-16-1.9c-7.4-0.3-14.6,0.6-22,0.9c-5.1,0.2-10-1.1-15-0.9c-5.7,0.2-11.3,1.8-17,1.9c-15.8,0.4-31.3-1.5-47-2.8
	c-5-0.4-10,1.1-15,0.8C464.5,312.7,460.3,310.9,456,310 M290,311c3.4,1.4,7.3,1,11,1C297.6,310.6,293.7,311,290,311z"/>
<path fill="#333333" d="M145,327c1.1,3.2,2.3,4.9,5,7C148.9,330.8,147.7,329.1,145,327z"/>
<path fill="#333333" d="M23,346c2.4,4.3,6.4,4.4,11,5c6.1,0.9,11.7,2.2,18,2c20.4-0.9,40.6-4.1,61-5c7.7-0.3,15.2-1.6,23-0.5
	c16.4,2.2,32.4,4.3,49,3.5c6.7-0.3,13.3-3.3,20-3.3c14-0.1,28,1.2,42,1.4c13.7,0.2,27.4-1,41-1c10.6,0,21.4,2.2,32,2.9
	c14.7,1,29.3-0.2,44,1.3c8,0.8,16,3.5,24,3.8c14.3,0.5,28.8-2.7,43-3.2c12.8-0.5,25.3,2.1,38,2.3c8.6,0.1,17.4-1.3,26-1.9
	c10.9-0.7,22.1-0.1,33-0.1c-5.2-2.2-12.4-1-18-1c-12.7,0-25.3-0.1-38,0.8c-10.4,0.7-21.4-2.8-32-2.8c-17,0-34.1,3.3-51,2.9
	c-12.3-0.3-24.6-4.3-37-4.8c-10.3-0.5-20.7,0.6-31-0.1c-10.9-0.7-22.1-2.9-33-2.9c-17.9,0-36,1.7-54,1c-9.7-0.4-19.3-2.3-29-2.6
	c-5-0.2-9.8,4.1-15,4.9c-8.9,1.5-19,0.1-28-0.3c-8.7-0.4-17.3-2.7-26-2.9c-28.3-0.7-55.8,2-84,3.9C42.3,349.6,32.3,344,23,346
	 M534,348c1.2,1.6,2.7,1.3,0,2c3.3,0.8,6.6-0.5,10-0.8c6-0.6,12-1.2,18-1.9c6.8-0.8,13.3,0.6,20,0.7c-3.3,1-6.5,1-10,1
	c5.2,2.5,11.3,2,17,2c10.1,0,20-0.1,30-1.1c5.3-0.5,13.1-0.2,15-5.9c-13.7,1.1-27.2,3.2-41,3c-10.1-0.1-19.9-2.2-30-2
	C553.3,345.3,543.8,348,534,348 M563,348c1.8,0.8,3,0.9,5,1C566.2,348.2,565,348.1,563,348 M530.7,351.3c-0.4,0.4,0.6,0.4,0.7,0.3
	C531.8,351.2,530.7,351.3,530.7,351.3 M546,357c1.8,0.8,3,0.9,5,1c0.5-3.7,5.8-4,9-5C555.1,351,550.3,354.6,546,357 M557,358
	c3.1,1.3,5.8,0.8,9,0C563.1,356.9,560.1,357.8,557,358 M552,358c1.5,1.3,2,1.5,4,2C554.5,358.7,554,358.5,552,358 M570.7,358.3
	c-0.4,0.4,0.6,0.4,0.7,0.3C571.8,358.2,570.7,358.3,570.7,358.3 M298,361c4.8,2,10,0.3,15,0c6.4-0.3,12.6,0.8,19,1
	c-4.6,2.2-9,2-14,2c4.9,2,10.9,0.9,16,0c-2.4-3.5-6.9-3.8-11-4C314.6,359.7,306.4,361,298,361 M546,360c1.2,0.7,1.5,0.7,3,1
	C547.8,360.3,547.5,360.3,546,360 M567.7,360.3c-0.4,0.4,0.6,0.4,0.7,0.3C568.8,360.2,567.7,360.3,567.7,360.3 M539,365
	c5.8,2.5,12.9,0.1,19,0c-5.8,2.2-13.4,1.4-17,7h19c-4.2,1.2-9.2,0.3-12,4l24-3l-2,1c2.3,0.6,2.8,0,4-2c-5.4-0.4-10.6-1-16-1
	c4.2-1.2,8.7-1.2,13-2l-1-2l5-1c-2.3-1-4.5-1-7-1c0.7,1.3,0.1,1,2,1c-8,2.4-17.6,3.3-26,4c6.5-2.4,18.7-1.4,23-7h-7
	c1.8-0.6,3.1-0.8,5-1c-3.9-1.5-8,0.2-12,1l2-1C550.3,360.3,543.4,363.1,539,365 M226,362c-1.6,2.5-3.2,3.1-6,4c2.9,1.2,5.1,0.9,8,0
	C227.4,364.2,227.1,363.5,226,362 M291,362c2.1,0.9,3.7,1,6,1C294.9,362.1,293.3,362,291,362 M283,363c1.8,0.8,3,0.9,5,1
	C286.2,363.2,285,363.1,283,363z"/>
<path fill="#333333" d="M549,363c1.2,0.7,1.5,0.7,3,1C550.8,363.3,550.5,363.3,549,363z"/>
<path fill="#333333" d="M262,365c4.1,1.6,9.5,0,14,0C271.6,363.2,266.6,364.2,262,365 M202,365c-0.2,9.6-13.2,11.6-21,12v2l18,2
	c-6.6,2.3-13.2,3.7-20,5c6.4,2.7,17.1-1,23-4v-2c-4.6-1.6-9.1-2-14-2c4.5-1.4,10-1.6,13.8-4.7C204.9,370.7,205.2,367.3,202,365
	 M305,365c2.3,1,4.5,1,7,1C309.7,365,307.5,365,305,365 M287,366c1.8,0.8,3,0.9,5,1C290.2,366.2,289,366.1,287,366 M153,367
	c1.5,0.7,2.3,0.8,4,1C155.5,367.3,154.7,367.2,153,367 M261,367c4,1.7,8.7,1,13,1C270,366.3,265.3,367,261,367 M142,370
	c-2.5,7.9-17.7,9.7-25,10c3.9,1.6,7.9,0.3,12-0.4c6.7-1.2,14.4-1.3,15-9.6H142 M253,370c8.8,3.8,20.6,2,30,2c15.4,0,30.6-1.6,46-1
	c5.7,0.2,11.3,1.5,17,2c-6.3,1.9-12.6,1.6-19,2.2c-14.8,1.4-30.2,1.8-45,1.8c5.5,2.3,13.1,1,19,1c5.6,0,11.4,1.1,17,0.8
	c4.7-0.2,9.3-1.4,14-1.7c6.7-0.4,11.6,1.1,18-2.1v-2c-10.4-4.4-22.9-3-34-3C294.9,370,274,370.1,253,370 M558,377
	c3.6,1.3,7.3-0.2,11-1C565.4,374.9,561.6,376.3,558,377 M542,377c1.8,0.5,3.1,0.3,5,0C545.1,376.4,544.1,376.6,542,377 M334,378
	c1.5,0.7,2.3,0.8,4,1C336.5,378.3,335.7,378.2,334,378 M543,381c3.4,1.4,7.3,1,11,1l-10,3c1.2,0.7,1.5,0.7,3,1c-3.7,1.2-8.4,1-11,4
	c9.8-2.3,20.9-1,31-1v2h-21c2.1,0.9,3.7,1,6,1c-5.7,1.7-10.5,3.4-16,6c1.3,1.3,3.9,0.7,6,2l-1,1c9.7-2.2,19.3,0.1,29-1
	c-4.7-2-10.9-1-16-1c2.1-0.6,3.8-0.9,6-1v-2c-6.4,0.1-12.7,1.5-19,2c4.6-2.8,8.8-2.7,14-3.4c6.4-0.9,12.9-2.5,19-4.6
	c-2.6-1.2-5.2-1.6-8-2c3.7-1.1,7.6-0.6,10-4c-7.6,0.6-14.4,2-22,1c6-1.3,14.3,1.3,18-5h-17l2-1C552.8,377.7,547.1,379.7,543,381
	 M309,381l4-1C311,379.2,310.4,379.3,309,381 M328,379c1.5,0.7,2.3,0.8,4,1C330.5,379.3,329.7,379.2,328,379 M323,380
	c1.5,0.7,2.3,0.8,4,1C325.5,380.3,324.7,380.2,323,380 M311,382c5.7,2,12.8,1,19,3v2c-12.4,2.3-26.4,2-39,2c6,2.5,14.6,1,21,1
	c16.7,0,33.3-1,50-1c-3.3,1.1-6.5,1.7-10,2c4.7,1.9,10.5-0.1,15-2c-3.7-1.6-8-1-12-1h-23C329.5,379.9,317.8,380.4,311,382z"/>
<path fill="#333333" d="M555,381c4.5,1.9,10.2,1,15,1C565.5,380.1,559.8,381,555,381 M547,385c2.1,0.9,3.7,1,6,1
	C550.9,385.1,549.3,385,547,385z"/>
<path fill="#333333" d="M176.7,387.3c-0.4,0.4,0.6,0.4,0.7,0.3C177.8,387.2,176.7,387.3,176.7,387.3 M209,388c1.5,0.7,2.3,0.8,4,1
	C211.5,388.3,210.7,388.2,209,388 M178,398c5.6,2.5,11.1,4,15,9c-7.2,1.5-22.7,1.7-27,8h4v2c-3.4,0.3-6.6,1.2-10,2
	c4.3,1.5,8.8-0.9,13-2c-1.2-2-1.7-2.3-4-3c8.7-3.7,18.5-2.5,27-7c-2.9-6-9.6-8.4-16-9c6.6-6.6,19-7.9,28-8
	C200.5,386.8,182,390.6,178,398 M269,390c6,2.5,14.6,1,21,1C284,388.5,275.4,390,269,390 M489,410c-1.9,0.5-3.3,1.1-5,2v2
	c6.9,2.2,14.4,4.6,17,12c2.7-7.9-8.1-11.6-14-13l4-1c-0.5-3.2-1.4-5.3-4.1-7.4c-1.6-1.3-4.9-2.5-5.3-4.8c-0.3-2.1,1.8-3.5,3.4-4.4
	c4-2.2,9.5-2.9,14-3.5c-4.8-2-20.3,0.6-19.5,8C479.9,404.1,486.2,407.4,489,410 M344,392c2.1,0.9,3.7,1,6,1
	C347.9,392.1,346.3,392,344,392 M326,394c4.5,2.7,9.9,2,15,2c9.2,0,18-0.3,27,2c-6,2.7-12.5,3.7-19,4c5.9,2.5,14.2-0.2,20-2
	c-1.6-4.9-6.4-4.7-11-5c-7.9-0.5-15.2,0-23,0c2.1-0.6,3.8-0.9,6-1C336.3,392,330.9,393.9,326,394 M453,393c4.7,2.2,10.1,3,15,5
	c-2.8,3.8-6.1,6.3-10,9c4.2,0.4,13.5-5.4,9.4-10.4C464,392.6,457.7,393,453,393 M538.7,394.3c-0.4,0.4,0.6,0.4,0.7,0.3
	C539.8,394.2,538.7,394.3,538.7,394.3 M259,400c2.8,1.1,5.1,0.3,8,0.3c6.9,0,13.1-0.2,20-1.1c13.6-1.6,27.3-2.3,41-2.3
	c-6.5-3.5-14-1.5-21-1C291,397.1,274.9,398,259,400 M374,399c3.2,1.3,6.6,1,10,1C380.8,398.7,377.4,399,374,399 M385,400
	c1.2,0.7,1.5,0.7,3,1C386.8,400.3,386.5,400.3,385,400 M577,402c3.4,4.5,12.7,3.3,18,4l-3,6c3.1-1.5,6.6-4.1,3-7
	c10.5-3.9,22.4-0.9,33-4c-3.9-1.4-8.8,0-13,0C602.1,401,589.9,403.6,577,402 M278,401c1.2,0.7,1.5,0.7,3,1c-0.5,1.6-0.4,1.5-2,2
	c1.8,0.6,2.1,0.5,4,0v-2C281.2,401.4,279.9,401.2,278,401 M389,401c0,3.3-4.2,2.7-7,3.2c-7.3,1.2-16.3,1-23,3.8
	c3.7,1.7,7.9,1.9,12,2c-7.5,4-18.7,2-27,2c-20,0-40.1,1-60,1c8,3.3,20.6,1,29,0.2c11.2-1.1,22.8-0.2,34-0.2c-13.6,4.1-28.9,4-43,4
	c4,1.7,8.7,1,13,1c-9.1,2.7-19.6,2.3-29,3.2c-9.7,0.9-19.3,2.8-29,2.8c6.8,2.8,15.9,0.1,23-0.7c15.1-1.8,30.8-4,46-4.3
	c-6.5,2.2-14.1,3.5-21,4c7.6,3.1,19.6-1.6,27-4c-3.2-1.3-6.6-1-10-1c4.4-1.3,8.5-0.4,13-0.8c11.7-1,24.5-2.4,36-5.2v-2
	c-2.4-0.6-4.6-0.9-7-1c7.3-3.9,21.2-0.4,26-8H389 M532,409c9.5,2.8,20.2,0,30,0c-7.8,2.4-16.2,1.5-24,4c5,1.8,12.6,0,18,0
	c-6.3,1.9-14.4,2.5-21,3c2.6,4,7.6,3,12,3h30v2c-11.7,0-22.4-1.3-34,0.6c-4.4,0.7-9.3-0.7-12,3.4c13.3,0,26.8-0.7,40,1
	c-8.7,2.6-19,1.6-28,2c-6.7,0.3-13.3,1.4-20,2c1.1-2,3.1-4.5,2.8-6.9c-0.6-5.9-13.4-6.8-17.8-8.1c3.5,4.4,10.9,2.2,14.5,6.5
	c2.5,3-2.1,7.8,1.9,9.9c6.2,3.3,12.6,1.6,16.7,8.6c-6.8,0-18.7-2.4-23,4c18.1,0,36-2,54-2c-13.8,4.1-29.2,0.6-43,5
	c3.3,2.9,6.8,2.8,11,3.3c8.2,1,16.8,1.7,25,1.7c-3.8,1.1-7.1,0.5-11,0.6c-9,0.3-18,0.4-27,0.4c6.6,5,19,3,27,3
	c-10.9,3.2-23.1-1.2-34,2c4,1.7,8.7,1,13,1h25c-9,2.7-19.6,0.8-29,2c5.9,2.5,11.9,1.4,18,1.3c3.7-0.1,7.3,0.7,11,0.7
	c-2.7,0.8-5.2,1-8,1c4.4,1.8,11,1.7,15-1c-1.8-0.6-3.1-0.8-5-1c6-1.9,11.7-4,18-4v-2l-39-1c11.1-3.3,25.4-1.1,37-2v-2
	c-14-1.1-27.9-2-42-2c13.7-4,29.3,2,43-2c-5.7-2.4-13.8-1-20-1c6-1.8,15.5,0,19-6h-13c4.9-1.5,10.8-0.4,14-5
	c-14.3-2.7-29.5-3.7-44-4c15.7-4.6,33.3,0.3,49-5c-4.4-3.4-11.6-2-17-2c5.2-1.6,10.7-1.7,16-3v-2c-13.9-3.3-29.8-1-44-1
	c8-3,16.6-2.2,25-2c-0.7-1.3-0.1-1-2-1c4.4-1.3,9-0.6,13-3c-3.6-2.1-7-1.3-11-1l4-2c-8.9-4-19.6-1-29-1c3-1.1,5.8-1.7,9-2
	c-1.2-0.7-1.5-0.7-3-1c3.1-0.7,5.8-0.2,9,0c-0.7-1.3-0.1-1-2-1c2.1-0.2,3.9-0.2,6,0v-3C548.3,401,537.2,403,532,409 M557,402
	c3,1.2,5.8,0.4,9,0C563,400.8,560.2,401.6,557,402 M336,404c3.6,1.5,7.2,0.3,11,0C343.4,402.5,339.8,403.7,336,404 M119,405
	c1.4,1.4,2.2,2,4,3v2c-6.4,2.9-6.5,9.4-10,15c5.5-2.2,4.5-5.1,6.6-9.8C121.6,410.5,127.1,407.4,119,405 M273,405c1.8,0.8,3,0.9,5,1
	C276.2,405.2,275,405.1,273,405 M324,405c2.9,1.2,5.9,1,9,1C330.1,404.8,327.1,405,324,405 M258,408c4.3,1.3,9.5-0.6,14-1
	C267.7,405.2,262.4,406.9,258,408 M308,406c1.5,0.7,2.3,0.8,4,1C310.5,406.3,309.7,406.2,308,406 M406,406c1.9,6.1-3.6,13.3,4,16.2
	c1.3,0.5,2.7,0.6,4,0.8c-2.2-2.2-4.1-3.1-7-4C409.5,413.3,412.4,410,406,406 M455,409l-1,4c1.3-1.3,2-2.4,3-4H455z"/>
<path fill="#333333" d="M558,412c2.6,1.1,5.2,1,8,1C563.4,411.9,560.8,412,558,412z"/>
<path fill="#333333" d="M456,413c3.2,1.5,6.5,1.9,10,2c-0.5,5-3.2,9.1-4,14l5,1c-1.4-0.9-2.4-1.4-4-2c2.5-5.7,8.4-14.3-2-15
	C459.4,412.9,457.7,413,456,413 M260,414c2.6,1.1,5.2,1,8,1C265.4,413.9,262.8,414,260,414 M427,417l1,1L427,417 M292,418
	c2.9,1.2,5.9,1,9,1C298.1,417.8,295.1,418,292,418 M221.7,421.3c-0.4,0.4,0.6,0.4,0.7,0.3C222.8,421.2,221.7,421.3,221.7,421.3z"/>
<path fill="#333333" d="M551,421c1.2,0.7,1.5,0.7,3,1C552.8,421.3,552.5,421.3,551,421z"/>
<path fill="#333333" d="M201,430c6,1.1,14.2-4,20-6C215.3,422.4,206.1,427.4,201,430 M292,425c4.5,1.9,9.3,0.4,14,0
	C301.7,423.2,296.6,424.9,292,425 M286,426c1.8,0.8,3,0.9,5,1C289.2,426.2,288,426.1,286,426 M277,427c1.2,0.7,1.5,0.7,3,1
	C278.8,427.3,278.5,427.3,277,427 M388,431c2.5-1,3.6-1.7,5-4C390.6,428.1,389.6,429,388,431 M420,427c2,3,7.6,4,8.7,7.3
	c0.9,2.7-2.1,5-2,7.6c0.1,4.2,9,8.6,12.4,10.1c-2.5-4.9-7-7-12-9c1-1.6,2.1-3.3,2.9-5C432.7,431.2,424.9,429.2,420,427 M288,430
	c4.5,1.9,9.3,0.5,14,0.1c8.6-0.8,16.4-1.2,25-0.1c-2.6-3-7.3-2-11-2C306.6,428,297.4,429.8,288,430 M308,431c4.5,1.9,9.3,0.4,14,0
	C317.7,429.2,312.6,430.9,308,431 M468,430c3.6,2.3,7.9,3.6,12,5C476.7,431.8,472.6,430.5,468,430 M188,439c2.7,0.8,5.1,1,8,1
	c-4.1,4-12,4.3-14,10l8-1c-1.8-0.8-3-0.9-5-1c4.9-2.2,9.9-4.3,15-6v-2c-3.4-0.8-6.5-1-10-1c2.2-3.9,6-5.3,10-7
	C195,431,189.8,434.4,188,439 M256.7,431.3c-0.4,0.4,0.6,0.4,0.7,0.3C257.8,431.2,256.7,431.3,256.7,431.3 M275,431c2.3,1,4.5,1,7,1
	C279.7,431,277.5,431,275,431 M374,449c4.3-2.8,1.8-6.7,3.6-10.8c1.5-3.5,6.2-4.7,9.4-6.2C375.3,428.8,376.6,442.6,374,449 M283,432
	c1.2,0.7,1.5,0.7,3,1C284.8,432.3,284.5,432.3,283,432 M276,435l4-1C278,433.2,277.4,433.3,276,435z"/>
<path fill="#333333" d="M538,433c9.6,10.3,23.6,4.3,36,4v-2C562,435,549.9,433.9,538,433z"/>
<path fill="#333333" d="M270,436c5.4,3.9,12.3,2.7,16,9c-5.3,1.1-10.6,2.5-16,2.9c-5.4,0.4-10.8-0.5-16,1.1c1.2,1.2,1.4,1.3,3,2
	c-3.9,1.5-7.9,2.2-12,3c4.5,1.8,13.2,1,15-4c7.6,0,15.6-0.1,23-2.4c3.2-1,5.8-3.5,9.1-4.3c6.5-1.5,14.3-0.3,21-0.3
	c-5.6,2.1-12,3.5-18,4c6.2,2.5,15.8-1.3,22-3v-2c-7.6-2.2-16.1,0.5-24-0.1c-4.7-0.3-8.4-3.3-13-3.9c5.2-1.5,9.7-0.2,15-0.1
	c5.7,0.1,11.2-1.1,17-1c4.7,0.1,11,1.2,14-3c-12.6,0-25.4,1.4-38,2C282,436.2,275.8,434.9,270,436z"/>
<path fill="#333333" d="M532,441c4,1.7,8.7,1,13,1C541.4,439.5,536.3,441,532,441 M546,440c4.7,2,10.9,1,16,1
	C557.3,439,551.1,440,546,440z"/>
<path fill="#333333" d="M288,448c2.1,0.9,3.7,1,6,1C291.9,448.1,290.3,448,288,448 M279,452c7.1,3,18.3-1,26-1v-2
	C296.2,449.1,287.7,451.6,279,452 M273,453c1.8,0.8,3,0.9,5,1C276.2,453.2,275,453.1,273,453 M276,457c4.5,1.9,9.3,0.4,14,0.1
	c6.9-0.5,14-0.1,21-0.1c-9.6,4.6-20.9,2.6-31,5c9.7,4.1,21.7,0.1,32,2c-11.8,3.5-24.8,3-37,3c4,1.7,8.7,1,13,1c11.5,0,22.6-2.1,34-3
	l2-5c-8,0.1-16,1.8-24,2c4.9-1.6,11-1.4,14-6L276,457z"/>
<path fill="#333333" d="M558,457c3.4,1.4,7.3,1,11,1C565.6,456.6,561.7,457,558,457z"/>
<path fill="#333333" d="M566,462c1.4,0.9,2.4,1.4,4,2C568.7,462.4,568.1,462.3,566,462 M275,463c1.5,0.7,2.3,0.8,4,1
	C277.5,463.3,276.7,463.2,275,463z"/>
<text transform="matrix(1 0 0 1 850.7617 295.9825)"><tspan x="0" y="0" fill="#333333" font-family="'Mistral'" font-size="218.2455">maisB</tspan><tspan x="443.8" y="0" fill="#333333" font-family="'Mistral'" font-size="218.2455" letter-spacing="-8">H</tspan></text>
<text transform="matrix(1 0 0 1 699.5059 403.7041)" fill="#333333" font-family="'Krungthep'" font-size="55.891">Cultura, lazer e notícias</text>
</svg>
